<?xml version="1.0" encoding="UTF-8"?>
<svg version="1.1" xmlns="http://www.w3.org/2000/svg" width="980" height="980">
<path d="M0 0 C323.4 0 646.8 0 980 0 C980 323.4 980 646.8 980 980 C656.6 980 333.2 980 0 980 C0 656.6 0 333.2 0 0 Z " fill="#231F20" transform="translate(0,0)"/>
<path d="M0 0 C1.06525909 -0.00012085 2.13051819 -0.0002417 3.22805786 -0.00036621 C19.43427539 0.02583403 34.87766973 0.87214091 50.75 4.375 C52.24305919 4.66886192 53.73652751 4.96065563 55.23046875 5.25 C74.05821201 9.09596427 92.52059235 15.94115736 109.75 24.375 C110.52682129 24.75382324 111.30364258 25.13264648 112.10400391 25.52294922 C127.58207298 33.16029844 141.45461607 42.38116993 154.75 53.375 C155.54792969 53.98859375 156.34585937 54.6021875 157.16796875 55.234375 C170.41625527 65.57645646 182.60923539 77.97764838 192.75 91.375 C193.44609375 92.25414062 194.1421875 93.13328125 194.859375 94.0390625 C204.5591848 106.52498788 213.07409554 120.04307214 219.75 134.375 C220.64912109 136.13650391 220.64912109 136.13650391 221.56640625 137.93359375 C231.59156042 157.80981111 237.91908269 179.49445775 241.75 201.375 C242.02710815 202.83655518 242.02710815 202.83655518 242.30981445 204.32763672 C244.07738956 214.76975743 244.08787869 225.16424455 244.06567383 235.73046875 C244.0625338 238.84150949 244.08597804 241.95157742 244.11132812 245.0625 C244.28354325 299.17849298 224.55870715 351.38593185 190.75 393.375 C190.33169922 393.89771484 189.91339844 394.42042969 189.48242188 394.95898438 C178.92838418 408.05888155 167.12378154 420.14336977 153.75 430.375 C152.82058594 431.09816406 151.89117188 431.82132813 150.93359375 432.56640625 C98.83901535 472.45240169 33.91766172 489.38653057 -31.23046875 481.578125 C-36.63960303 480.76635359 -41.93758046 479.66548519 -47.25 478.375 C-48.25401855 478.15465088 -49.25803711 477.93430176 -50.29248047 477.70727539 C-80.88159761 470.95303409 -110.98210952 458.02700749 -136.25 439.375 C-137.63058594 438.37726563 -137.63058594 438.37726563 -139.0390625 437.359375 C-156.33895936 424.66974089 -171.96444748 410.24989504 -185.25 393.375 C-186.79093512 391.54105175 -188.33260872 389.70772376 -189.875 387.875 C-194.15375893 382.62816262 -197.76887896 377.1744459 -201.25 371.375 C-202.02991574 370.10675104 -202.80986586 368.83852323 -203.58984375 367.5703125 C-224.19153014 333.71063187 -238.24306237 293.55076718 -238.453125 253.6171875 C-238.46357849 252.27000137 -238.46357849 252.27000137 -238.47424316 250.89559937 C-238.4915331 248.01368466 -238.49796243 245.13196441 -238.5 242.25 C-238.50100708 241.26656616 -238.50201416 240.28313232 -238.50305176 239.26989746 C-238.48937654 219.5429899 -237.36549621 200.43768296 -231.83007812 181.39160156 C-231.20655796 179.22397673 -230.6270011 177.04680412 -230.046875 174.8671875 C-222.96045293 149.02924533 -211.41709513 123.81908876 -195.25 102.375 C-194.38273866 101.17026013 -193.51699267 99.96442868 -192.65234375 98.7578125 C-185.53399989 88.92663399 -177.71321765 80.06208507 -169.25 71.375 C-168.35152344 70.4365625 -167.45304687 69.498125 -166.52734375 68.53125 C-160.8008193 62.65044518 -154.69607148 57.44789207 -148.25 52.375 C-147.31027344 51.60671875 -146.37054688 50.8384375 -145.40234375 50.046875 C-130.9964969 38.52219752 -114.97009724 29.12057696 -98.25 21.375 C-97.43917969 20.98892578 -96.62835938 20.60285156 -95.79296875 20.20507812 C-88.83993159 16.94929088 -81.78305373 14.29560833 -74.5 11.875 C-73.33057861 11.48626709 -72.16115723 11.09753418 -70.95629883 10.69702148 C-59.88556322 7.10863813 -48.71081295 4.37988893 -37.25 2.375 C-35.78409424 2.09897949 -35.78409424 2.09897949 -34.28857422 1.81738281 C-22.90834187 -0.09896428 -11.51132225 -0.01999245 0 0 Z " fill="#232021" transform="translate(487.25,248.625)"/>
<path d="M0 0 C1.06525909 -0.00012085 2.13051819 -0.0002417 3.22805786 -0.00036621 C19.43427539 0.02583403 34.87766973 0.87214091 50.75 4.375 C52.24305919 4.66886192 53.73652751 4.96065563 55.23046875 5.25 C74.05821201 9.09596427 92.52059235 15.94115736 109.75 24.375 C110.52682129 24.75382324 111.30364258 25.13264648 112.10400391 25.52294922 C127.58207298 33.16029844 141.45461607 42.38116993 154.75 53.375 C155.54792969 53.98859375 156.34585937 54.6021875 157.16796875 55.234375 C170.41625527 65.57645646 182.60923539 77.97764838 192.75 91.375 C193.44609375 92.25414062 194.1421875 93.13328125 194.859375 94.0390625 C204.5591848 106.52498788 213.07409554 120.04307214 219.75 134.375 C220.64912109 136.13650391 220.64912109 136.13650391 221.56640625 137.93359375 C231.59156042 157.80981111 237.91908269 179.49445775 241.75 201.375 C242.02710815 202.83655518 242.02710815 202.83655518 242.30981445 204.32763672 C244.07738956 214.76975743 244.08787869 225.16424455 244.06567383 235.73046875 C244.0625338 238.84150949 244.08597804 241.95157742 244.11132812 245.0625 C244.28354325 299.17849298 224.55870715 351.38593185 190.75 393.375 C190.33169922 393.89771484 189.91339844 394.42042969 189.48242188 394.95898438 C178.92838418 408.05888155 167.12378154 420.14336977 153.75 430.375 C152.82058594 431.09816406 151.89117188 431.82132813 150.93359375 432.56640625 C98.83901535 472.45240169 33.91766172 489.38653057 -31.23046875 481.578125 C-36.63960303 480.76635359 -41.93758046 479.66548519 -47.25 478.375 C-48.25401855 478.15465088 -49.25803711 477.93430176 -50.29248047 477.70727539 C-80.88159761 470.95303409 -110.98210952 458.02700749 -136.25 439.375 C-137.63058594 438.37726563 -137.63058594 438.37726563 -139.0390625 437.359375 C-156.33895936 424.66974089 -171.96444748 410.24989504 -185.25 393.375 C-186.79093512 391.54105175 -188.33260872 389.70772376 -189.875 387.875 C-194.15375893 382.62816262 -197.76887896 377.1744459 -201.25 371.375 C-202.02991574 370.10675104 -202.80986586 368.83852323 -203.58984375 367.5703125 C-224.19153014 333.71063187 -238.24306237 293.55076718 -238.453125 253.6171875 C-238.46357849 252.27000137 -238.46357849 252.27000137 -238.47424316 250.89559937 C-238.4915331 248.01368466 -238.49796243 245.13196441 -238.5 242.25 C-238.50100708 241.26656616 -238.50201416 240.28313232 -238.50305176 239.26989746 C-238.48937654 219.5429899 -237.36549621 200.43768296 -231.83007812 181.39160156 C-231.20655796 179.22397673 -230.6270011 177.04680412 -230.046875 174.8671875 C-222.96045293 149.02924533 -211.41709513 123.81908876 -195.25 102.375 C-194.38273866 101.17026013 -193.51699267 99.96442868 -192.65234375 98.7578125 C-185.53399989 88.92663399 -177.71321765 80.06208507 -169.25 71.375 C-168.35152344 70.4365625 -167.45304687 69.498125 -166.52734375 68.53125 C-160.8008193 62.65044518 -154.69607148 57.44789207 -148.25 52.375 C-147.31027344 51.60671875 -146.37054688 50.8384375 -145.40234375 50.046875 C-130.9964969 38.52219752 -114.97009724 29.12057696 -98.25 21.375 C-97.43917969 20.98892578 -96.62835938 20.60285156 -95.79296875 20.20507812 C-88.83993159 16.94929088 -81.78305373 14.29560833 -74.5 11.875 C-73.33057861 11.48626709 -72.16115723 11.09753418 -70.95629883 10.69702148 C-59.88556322 7.10863813 -48.71081295 4.37988893 -37.25 2.375 C-35.78409424 2.09897949 -35.78409424 2.09897949 -34.28857422 1.81738281 C-22.90834187 -0.09896428 -11.51132225 -0.01999245 0 0 Z M-41.25 37.375 C-42.50425781 37.65214844 -43.75851562 37.92929687 -45.05078125 38.21484375 C-73.81846631 44.95139714 -99.81437446 57.4320992 -123.25 75.375 C-124.054375 75.98601562 -124.85875 76.59703125 -125.6875 77.2265625 C-142.54649645 90.35712704 -157.38820226 105.59480001 -169.25 123.375 C-169.6310791 123.93654785 -170.0121582 124.4980957 -170.40478516 125.07666016 C-185.61558497 147.54612882 -194.98847063 171.02773352 -201.25 197.375 C-201.47880859 198.31553223 -201.70761719 199.25606445 -201.94335938 200.22509766 C-207.47653005 223.76661075 -207.24542346 250.56789082 -203.25 274.375 C-203.10997559 275.25494629 -202.96995117 276.13489258 -202.82568359 277.04150391 C-197.30647855 310.52926618 -182.96117975 341.01623131 -162.875 368.125 C-162.36275879 368.81754883 -161.85051758 369.51009766 -161.32275391 370.22363281 C-160.83726074 370.86655273 -160.35176758 371.50947266 -159.8515625 372.171875 C-159.42182129 372.74260742 -158.99208008 373.31333984 -158.54931641 373.90136719 C-157.12502469 375.64410909 -157.12502469 375.64410909 -154.25 377.375 C-154.25967804 376.80918213 -154.26935608 376.24336426 -154.27932739 375.66040039 C-154.3713611 369.6883022 -154.39123609 363.7188462 -154.37207031 357.74609375 C-154.37399862 355.52725574 -154.39339047 353.30835288 -154.43164062 351.08984375 C-154.66725773 336.58630207 -153.59707141 326.48902097 -144.46258545 314.93035889 C-142.84221344 312.85194041 -141.46207965 310.65091288 -140.078125 308.41015625 C-139.22005863 307.08508916 -138.36076044 305.76081862 -137.5 304.4375 C-137.07074219 303.77427734 -136.64148438 303.11105469 -136.19921875 302.42773438 C-132.92605509 297.38119996 -129.59555222 292.3737764 -126.25 287.375 C-126.48074219 287.90641602 -126.71148437 288.43783203 -126.94921875 288.98535156 C-131.34727593 299.13304278 -135.68403501 309.30171726 -139.8125 319.5625 C-140.15861328 320.41682617 -140.50472656 321.27115234 -140.86132812 322.15136719 C-141.17650391 322.9405957 -141.49167969 323.72982422 -141.81640625 324.54296875 C-142.09427979 325.23672607 -142.37215332 325.9304834 -142.65844727 326.64526367 C-143.35786338 328.38571702 -143.35786338 328.38571702 -143.25 330.375 C-46.89 330.375 49.47 330.375 148.75 330.375 C146.89443599 324.80830798 145.05318376 319.4538551 142.8671875 314.0390625 C142.60745148 313.3930307 142.34771545 312.7469989 142.08010864 312.08139038 C141.26423615 310.05324335 140.44482195 308.02655337 139.625 306 C138.79867472 303.95177332 137.97311497 301.90324257 137.14846802 299.8543396 C136.40629327 298.01118002 135.66194705 296.16889524 134.91748047 294.32666016 C134.14090994 292.36331058 133.41766783 290.3780035 132.75 288.375 C133.34425781 289.33277344 133.93851563 290.29054688 134.55078125 291.27734375 C139.59149319 299.38197752 144.6969643 307.43931921 149.90551758 315.43725586 C150.74261695 316.7237603 151.5734645 318.01436594 152.3964386 319.30995178 C153.24561469 320.6054893 154.13154859 321.87840405 155.06723022 323.11291504 C159.18698176 328.83795208 159.48399649 333.74016766 159.45703125 340.65625 C159.47215256 341.71034058 159.48727386 342.76443115 159.50285339 343.85046387 C159.54558127 347.19219607 159.55455438 350.53302235 159.5625 353.875 C159.58565576 356.1510655 159.61102333 358.42710964 159.63867188 360.703125 C159.70137675 366.26042541 159.73642914 371.81737394 159.75 377.375 C194.57497203 342.72459816 210.83444944 290.05292679 210.99819946 241.90078735 C210.99879364 241.23227753 210.99938782 240.5637677 211 239.875 C211.00067474 239.18078949 211.00134949 238.48657898 211.00204468 237.77133179 C210.98318118 225.44430197 210.11059112 213.48929341 207.75 201.375 C207.58371094 200.50907227 207.41742187 199.64314453 207.24609375 198.75097656 C203.34651259 179.15919196 196.17266569 160.93806251 186.75 143.375 C186.23832275 142.39587646 186.23832275 142.39587646 185.71630859 141.39697266 C180.39559347 131.23383678 174.18304463 122.10846437 167.09570312 113.09521484 C165.95531558 111.63745529 164.8417761 110.15875443 163.734375 108.67578125 C153.91666119 95.7633533 141.75337888 84.9628296 128.75 75.375 C128.18458496 74.94880371 127.61916992 74.52260742 127.03662109 74.08349609 C109.4246897 60.81051786 89.54143973 50.683666 68.75 43.375 C67.77546875 43.02824219 66.8009375 42.68148437 65.796875 42.32421875 C55.68374997 38.96614262 45.2302383 37.1742818 34.75 35.375 C33.77474365 35.19187256 32.7994873 35.00874512 31.79467773 34.82006836 C23.51006182 33.36860314 15.39302636 33.0973491 7.01196289 33.16918945 C4.8184028 33.18745086 2.62526902 33.18969803 0.43164062 33.18945312 C-13.7815562 33.22384472 -27.36836964 34.21944081 -41.25 37.375 Z " fill="#FCFCFC" transform="translate(487.25,248.625)"/>
<path d="M0 0 C7.57155133 4.07388117 13.57545787 10.67625928 19.60771179 16.70381165 C20.30930682 17.40102441 21.01090184 18.09823718 21.73375732 18.81657761 C24.06272704 21.13228941 26.38819792 23.45148113 28.71362305 25.77075195 C30.39122385 27.44044203 32.06900365 29.10995229 33.74694824 30.77929688 C38.76137746 35.76988687 43.77152781 40.76475623 48.78051707 45.76080564 C50.6703633 47.64568839 52.56044963 49.53033032 54.45051753 51.41499079 C62.79370051 59.73449245 71.13513376 68.05574534 79.47238445 76.38119221 C81.50671646 78.41259509 83.54106478 80.44398164 85.57543945 82.4753418 C86.08099901 82.98015531 86.58655858 83.48496882 87.10743812 84.00507971 C95.30457564 92.18955262 103.51195145 100.36367899 111.72354486 108.53364537 C120.17099144 116.93862172 128.60893649 125.35304416 137.03778487 133.77667207 C141.76386509 138.49934608 146.49428698 143.21753111 151.234869 147.92565346 C155.6921175 152.35281336 160.13732393 156.7917194 164.5736618 161.23983002 C166.20070861 162.86709742 167.83201947 164.49011456 169.46794319 166.10845757 C171.70650738 168.32427249 173.92897177 170.55511903 176.14823914 172.79023743 C176.79357013 173.42168633 177.43890112 174.05313524 178.1037876 174.70371896 C183.43333 180.12706071 187.49521831 186.35212713 188.78125 193.94140625 C188.46680216 204.20026695 187.46854678 210.25829101 180.34375 217.91796875 C179.62030647 218.69633087 179.62030647 218.69633087 178.88224792 219.49041748 C173.23014297 225.52963586 167.37172668 231.36314758 161.5 237.1875 C160.3936416 238.28882285 159.2875208 239.39038445 158.18164062 240.4921875 C155.51964353 243.14336585 152.85450511 245.79135845 150.1875 248.4375 C145.8307754 246.53278415 144.15952059 243.67417998 141.8125 239.6875 C140.93227639 238.23619793 140.05068731 236.78572343 139.16796875 235.3359375 C138.69278809 234.55057617 138.21760742 233.76521484 137.72802734 232.95605469 C134.92230526 228.36907703 132.01889105 223.84416394 129.125 219.3125 C128.21741943 217.8879248 128.21741943 217.8879248 127.29150391 216.43457031 C124.1012426 211.4283675 120.90123369 206.42866182 117.6875 201.4375 C116.66849609 199.82294922 116.66849609 199.82294922 115.62890625 198.17578125 C113.68929757 195.14424472 111.61752912 192.22241533 109.52734375 189.29296875 C97.05602649 171.4191286 97.05602649 171.4191286 98.5078125 159.14453125 C99.43478577 154.0887977 100.4776561 149.28723905 102.1875 144.4375 C102.45046875 143.591875 102.7134375 142.74625 102.984375 141.875 C104.10700093 138.30092562 105.0892722 135.58484171 107.1875 132.4375 C106.57003906 132.84742188 105.95257812 133.25734375 105.31640625 133.6796875 C104.46949219 134.21851563 103.62257813 134.75734375 102.75 135.3125 C101.92628906 135.84617187 101.10257813 136.37984375 100.25390625 136.9296875 C92.05820791 140.9596742 83.34153754 140.76856405 74.40234375 140.8515625 C73.10551163 140.87092865 71.8086795 140.8902948 70.47254944 140.9102478 C67.05488991 140.96118113 63.6371914 141.00101203 60.21936035 141.03839111 C56.71971298 141.07867673 53.22022233 141.1296559 49.72070312 141.1796875 C42.87641711 141.27598602 36.03203003 141.3605354 29.1875 141.4375 C31.1675 143.4175 33.1475 145.3975 35.1875 147.4375 C34.8575 148.0975 34.5275 148.7575 34.1875 149.4375 C33.01487096 148.31871617 31.84954862 147.19226949 30.6875 146.0625 C30.0378125 145.43601562 29.388125 144.80953125 28.71875 144.1640625 C27.1875 142.4375 27.1875 142.4375 27.1875 140.4375 C26.59324219 140.48390625 25.99898437 140.5303125 25.38671875 140.578125 C16.25600424 140.97572999 8.87515587 138.25436158 1.1875 133.4375 C1.44144531 134.09234375 1.69539062 134.7471875 1.95703125 135.421875 C2.30121094 136.33453125 2.64539063 137.2471875 3 138.1875 C3.33644531 139.06921875 3.67289063 139.9509375 4.01953125 140.859375 C7.13887645 150.41562986 8.71812163 159.18159879 8.625 169.25 C8.61887695 170.38493896 8.61275391 171.51987793 8.60644531 172.68920898 C8.37881707 184.95399378 5.60458041 195.40987202 0.1875 206.4375 C0.76757812 206.02757812 1.34765625 205.61765625 1.9453125 205.1953125 C2.72648438 204.65648437 3.50765625 204.11765625 4.3125 203.5625 C5.07820312 203.02882813 5.84390625 202.49515625 6.6328125 201.9453125 C11.67666468 198.96835999 16.29824397 198.17982671 22.10400391 198.07104492 C22.76835449 198.05618042 23.43270508 198.04131592 24.1171875 198.02600098 C26.2994186 197.98007402 28.48156239 197.94827677 30.6640625 197.91796875 C32.19616327 197.89159232 33.72825757 197.86483725 35.26034546 197.83772278 C38.46956112 197.78339627 41.67878432 197.73660586 44.88818359 197.69458008 C48.96996377 197.64012125 53.05093006 197.56257728 57.13219643 197.47863293 C60.29795072 197.41692404 63.46380348 197.37004779 66.62986374 197.32717323 C68.1327995 197.30466769 69.63567059 197.27720441 71.13841629 197.24437523 C84.34960832 196.96686839 99.1166238 197.81090103 109.1875 207.4375 C112.94442685 213.29026685 115.07274795 219.98189646 117.375 226.5 C118.03088613 228.24940801 118.69036674 229.99747278 119.35351562 231.74414062 C120.55278227 234.9483766 121.74438706 238.15439028 122.88745117 241.37915039 C123.11550949 242.01977921 123.34356781 242.66040802 123.57853699 243.32044983 C124.34104275 245.9712889 124.73403398 248.7167039 125.1875 251.4375 C35.4275 251.4375 -54.3325 251.4375 -146.8125 251.4375 C-145.52885918 245.66111633 -144.53115271 241.23547311 -142.3515625 235.96875 C-141.87976563 234.82019531 -141.40796875 233.67164063 -140.921875 232.48828125 C-140.43203125 231.31652344 -139.9421875 230.14476562 -139.4375 228.9375 C-138.95539063 227.76574219 -138.47328125 226.59398437 -137.9765625 225.38671875 C-137.03456723 223.10596389 -136.08425442 220.82862258 -135.12475586 218.55517578 C-134.30518414 216.60802586 -133.50118355 214.65416068 -132.72094727 212.69091797 C-129.78552848 205.52638339 -129.78552848 205.52638339 -125.5 203.5625 C-124.78199219 203.21445312 -124.06398438 202.86640625 -123.32421875 202.5078125 C-122.08091797 201.97800781 -122.08091797 201.97800781 -120.8125 201.4375 C-119.74893784 200.92744919 -118.68537567 200.41739838 -117.58958435 199.89189148 C-113.9487241 198.33884073 -110.84927619 198.07434248 -106.86743164 198.09692383 C-106.21292023 198.09648575 -105.55840881 198.09604767 -104.88406372 198.09559631 C-102.74661147 198.09766626 -100.60996939 198.12090987 -98.47265625 198.14453125 C-96.98050871 198.15013364 -95.48835561 198.1544007 -93.99620056 198.15739441 C-90.08837372 198.16879267 -86.18088683 198.19821577 -82.27319336 198.23150635 C-78.2778788 198.26231619 -74.28250876 198.27592296 -70.28710938 198.29101562 C-62.4620854 198.32309102 -54.63734052 198.37422558 -46.8125 198.4375 C-49.7825 194.4775 -49.7825 194.4775 -52.8125 190.4375 C-48.8125 192.4375 -48.8125 192.4375 -46.5625 194.9375 C-43.71839467 197.5230503 -41.9189429 198.11075878 -38.21484375 198.8359375 C-33.2142426 200.08812055 -28.52611326 202.37922221 -23.8125 204.4375 C-24.08513672 203.52871094 -24.08513672 203.52871094 -24.36328125 202.6015625 C-25.58789062 198.51953125 -25.58789062 198.51953125 -26.8125 194.4375 C-27.06314209 193.75623047 -27.31378418 193.07496094 -27.57202148 192.37304688 C-30.18431296 184.82521513 -30.29380781 177.62069625 -30.25 169.6875 C-30.26998047 168.4190625 -30.28996094 167.150625 -30.31054688 165.84375 C-30.304643 154.27215989 -27.79533544 143.90145442 -22.8125 133.4375 C-23.91658203 133.94410156 -23.91658203 133.94410156 -25.04296875 134.4609375 C-26.01878906 134.90695312 -26.99460937 135.35296875 -28 135.8125 C-28.96292969 136.25335938 -29.92585937 136.69421875 -30.91796875 137.1484375 C-31.87316406 137.57382812 -32.82835937 137.99921875 -33.8125 138.4375 C-34.57000046 138.78751068 -35.32750092 139.13752136 -36.10795593 139.49813843 C-39.2051232 140.5738687 -41.70375825 140.71565228 -44.97973633 140.75634766 C-46.81106865 140.78615219 -46.81106865 140.78615219 -48.67939758 140.81655884 C-49.98789169 140.82811005 -51.2963858 140.83966125 -52.64453125 140.8515625 C-54.00503194 140.87028547 -55.36552117 140.88985973 -56.72599792 140.9102478 C-60.29496479 140.96145602 -63.86396926 141.00114187 -67.43310547 141.03839111 C-71.07984635 141.07850201 -74.72643234 141.12956192 -78.37304688 141.1796875 C-85.51941768 141.27631261 -92.66588575 141.36076001 -99.8125 141.4375 C-97.8325 143.7475 -95.8525 146.0575 -93.8125 148.4375 C-97.8125 146.4375 -97.8125 146.4375 -100.08203125 143.90234375 C-103.4138674 140.89463472 -106.2101383 140.48955967 -110.5 140 C-117.6568336 138.95287849 -122.93690774 136.80182214 -128.8125 132.4375 C-128.48636719 133.09234375 -128.16023438 133.7471875 -127.82421875 134.421875 C-122.31255481 145.93296076 -117.69909129 159.58364861 -120.8125 172.4375 C-123.33133177 178.39899434 -127.21426389 183.59463564 -130.96826172 188.82763672 C-134.26857591 193.49805752 -137.33246815 198.32359127 -140.4375 203.125 C-141.71695059 205.08235642 -142.99688823 207.03939458 -144.27734375 208.99609375 C-148.44370585 215.38806242 -152.48396839 221.85365217 -156.50439453 228.33789062 C-159.12881978 232.55029397 -161.78514773 236.74264775 -164.4375 240.9375 C-165.23837036 242.2044873 -165.23837036 242.2044873 -166.05541992 243.49707031 C-167.3074565 245.47741844 -168.55988104 247.45752023 -169.8125 249.4375 C-174.53831287 245.47758324 -179.05727816 241.37318801 -183.4453125 237.04296875 C-184.34490189 236.15548698 -184.34490189 236.15548698 -185.26266479 235.25007629 C-186.51949617 234.00696775 -187.774862 232.76237584 -189.02880859 231.51635742 C-190.30039876 230.25631534 -191.5764504 229.00075961 -192.85693359 227.74975586 C-210.37826468 210.63041379 -210.37826468 210.63041379 -210.54492188 200.09179688 C-210.52268555 199.05635742 -210.52268555 199.05635742 -210.5 198 C-210.52771484 197.31357422 -210.55542969 196.62714844 -210.58398438 195.91992188 C-210.54221784 186.92340966 -204.52869115 179.722068 -198.47816491 173.56352919 C-197.48740193 172.58512736 -197.48740193 172.58512736 -196.47662354 171.58695984 C-195.75984743 170.8632382 -195.04307132 170.13951657 -194.30457473 169.39386398 C-191.92368598 166.99482141 -189.52891355 164.61016538 -187.13378906 162.2253418 C-185.41434006 160.4988286 -183.69573406 158.77147549 -181.97790527 157.04335022 C-177.8081708 152.85349753 -173.6291492 148.67305768 -169.44527033 144.49734082 C-166.04299779 141.10138816 -162.64449252 137.70170783 -159.24858856 134.29938698 C-158.76382515 133.81372191 -158.27906174 133.32805685 -157.77960853 132.82767466 C-156.79459745 131.84081224 -155.80959199 130.85394422 -154.82459208 129.86707065 C-145.60518653 120.63111844 -136.37321533 111.40780852 -127.13710329 102.18856744 C-118.6997113 93.76587555 -110.27707919 85.32860194 -101.8614631 76.88415708 C-93.20360159 68.19685988 -84.53652269 59.51886217 -75.85916305 50.85103923 C-74.87665289 49.86955155 -73.89415665 48.88804992 -72.9116745 47.90653419 C-72.42836814 47.42370423 -71.94506178 46.94087426 -71.44710977 46.44341308 C-68.0535728 43.05203439 -64.66603751 39.65473231 -61.28089142 36.25498009 C-56.7191123 31.67379155 -52.14423527 27.10595095 -47.56047058 22.54675865 C-45.88324856 20.87453764 -44.2102465 19.19807136 -42.54187775 17.51701736 C-40.25810296 15.21726039 -37.95935068 12.93356368 -35.65631104 10.65312195 C-35.00472527 9.98970045 -34.3531395 9.32627896 -33.68180871 8.64275378 C-24.33705819 -0.51753293 -12.75080631 -5.05635423 0 0 Z " fill="#FCFCFC" transform="translate(500.8125,321.5625)"/>
<path d="M0 0 C97.02 0 194.04 0 294 0 C294 7.59 294 15.18 294 23 C293.01 23.99 292.02 24.98 291 26 C290.34 26 289.68 26 289 26 C288.80277344 26.55171875 288.60554688 27.1034375 288.40234375 27.671875 C286.4201431 30.96265937 283.58136311 32.96776667 280.5625 35.25 C279.93142334 35.73452637 279.30034668 36.21905273 278.65014648 36.71826172 C276.772948 38.15386415 274.88712056 39.57748031 273 41 C272.0615625 41.71929688 271.123125 42.43859375 270.15625 43.1796875 C226.3761623 76.01475327 170.11658415 88.43799872 116.24243164 81.54467773 C72.33384895 75.08825291 31.32161134 54.32161134 0 23 C0 15.41 0 7.82 0 0 Z " fill="#242021" transform="translate(343,615)"/>
<path d="M0 0 C2.15473199 1.5801368 4.10646634 3.10646634 6 5 C6.66 4.67 7.32 4.34 8 4 C7.91266424 5.60517097 7.80447776 7.20921662 7.6875 8.8125 C7.60048828 10.15248047 7.60048828 10.15248047 7.51171875 11.51953125 C6.92397875 14.36849996 6.11363072 15.1037092 4 17 C3.505 18.485 3.505 18.485 3 20 C2.01 20.495 2.01 20.495 1 21 C-0.06236217 23.33387159 -1.01852183 25.64369005 -1.93359375 28.03515625 C-2.21219742 28.7472374 -2.49080109 29.45931854 -2.77784729 30.19297791 C-3.67092879 32.48033669 -4.55424726 34.77133037 -5.4375 37.0625 C-6.02867203 38.58032164 -6.62046179 40.09790284 -7.21289062 41.61523438 C-9.85414727 48.39353241 -12.45414832 55.18525055 -15 62 C-16.65 61.34 -18.3 60.68 -20 60 C-20.66 61.32 -21.32 62.64 -22 64 C-23 62 -23 62 -22.02783203 59.06665039 C-21.52904456 57.82379184 -21.02175068 56.58432672 -20.5078125 55.34765625 C-20.24241669 54.69171982 -19.97702087 54.03578339 -19.70358276 53.35997009 C-18.85128682 51.25778694 -17.98843357 49.16013002 -17.125 47.0625 C-16.27106225 44.96754129 -15.4192611 42.87172438 -14.56784058 40.77574158 C-14.03671653 39.47054269 -13.50368119 38.16611958 -12.96853638 36.86256409 C-11.90125669 34.25821884 -10.89045537 31.67136612 -10 29 C-10.67546875 30.09699219 -11.3509375 31.19398438 -12.046875 32.32421875 C-12.94774667 33.77875113 -13.84879784 35.23317236 -14.75 36.6875 C-15.1934375 37.40873047 -15.636875 38.12996094 -16.09375 38.87304688 C-18.52388344 42.78627646 -21.02071673 46.47080229 -24 50 C-24.66 48.68 -25.32 47.36 -26 46 C-26.66 46 -27.32 46 -28 46 C-28.66 48.31 -29.32 50.62 -30 53 C-30.66 52.67 -31.32 52.34 -32 52 C-30.60397211 48.18004253 -28.82712707 44.94759101 -26.62109375 41.53515625 C-25.61622925 39.97365845 -25.61622925 39.97365845 -24.59106445 38.38061523 C-23.52505005 36.73814819 -23.52505005 36.73814819 -22.4375 35.0625 C-21.70686614 33.93003281 -20.97664297 32.79730056 -20.24682617 31.66430664 C-18.16873073 28.44016233 -16.08425371 25.22016674 -14 22 C-12.26852529 19.31398038 -10.54013161 16.62599243 -8.8125 13.9375 C-8.13960938 12.89207031 -7.46671875 11.84664062 -6.7734375 10.76953125 C-4.48617426 7.19757169 -2.23500647 3.60484914 0 0 Z " fill="#242223" transform="translate(370,508)"/>
<path d="M0 0 C3.64581687 -0.02887512 7.29160463 -0.04675585 10.9375 -0.0625 C12.49887695 -0.07506836 12.49887695 -0.07506836 14.09179688 -0.08789062 C15.57583008 -0.09272461 15.57583008 -0.09272461 17.08984375 -0.09765625 C18.46450806 -0.10551147 18.46450806 -0.10551147 19.86694336 -0.11352539 C22 0 22 0 23 1 C23.09899523 2.54955559 23.13079524 4.10353673 23.1328125 5.65625 C23.13474609 7.06583984 23.13474609 7.06583984 23.13671875 8.50390625 C23.13285156 9.49261719 23.12898438 10.48132813 23.125 11.5 C23.13080078 12.98306641 23.13080078 12.98306641 23.13671875 14.49609375 C23.13542969 15.43582031 23.13414062 16.37554687 23.1328125 17.34375 C23.13168457 18.21193359 23.13055664 19.08011719 23.12939453 19.97460938 C23 22 23 22 22 23 C20.45044441 23.09899523 18.89646327 23.13079524 17.34375 23.1328125 C15.93416016 23.13474609 15.93416016 23.13474609 14.49609375 23.13671875 C13.50738281 23.13285156 12.51867187 23.12898438 11.5 23.125 C10.51128906 23.12886719 9.52257812 23.13273437 8.50390625 23.13671875 C7.56417969 23.13542969 6.62445313 23.13414062 5.65625 23.1328125 C4.78806641 23.13168457 3.91988281 23.13055664 3.02539062 23.12939453 C1 23 1 23 0 22 C-0.08700342 20.36527118 -0.10701063 18.72685945 -0.09765625 17.08984375 C-0.09443359 16.10048828 -0.09121094 15.11113281 -0.08789062 14.09179688 C-0.07951172 13.05087891 -0.07113281 12.00996094 -0.0625 10.9375 C-0.05798828 9.89271484 -0.05347656 8.84792969 -0.04882812 7.77148438 C-0.03699913 5.1809334 -0.02051689 2.59049441 0 0 Z " fill="#242122" transform="translate(462,399)"/>
<path d="M0 0 C1.40958984 -0.00193359 1.40958984 -0.00193359 2.84765625 -0.00390625 C3.83636719 -0.00003906 4.82507813 0.00382812 5.84375 0.0078125 C7.32681641 0.00201172 7.32681641 0.00201172 8.83984375 -0.00390625 C9.77957031 -0.00261719 10.71929687 -0.00132812 11.6875 0 C12.55568359 0.00112793 13.42386719 0.00225586 14.31835938 0.00341797 C16.34375 0.1328125 16.34375 0.1328125 17.34375 1.1328125 C17.43075342 2.76754132 17.45076063 4.40595305 17.44140625 6.04296875 C17.43818359 7.03232422 17.43496094 8.02167969 17.43164062 9.04101562 C17.42326172 10.08193359 17.41488281 11.12285156 17.40625 12.1953125 C17.40173828 13.24009766 17.39722656 14.28488281 17.39257812 15.36132812 C17.38074913 17.9518791 17.36426689 20.54231809 17.34375 23.1328125 C13.69793313 23.16168762 10.05214537 23.17956835 6.40625 23.1953125 C4.84487305 23.20788086 4.84487305 23.20788086 3.25195312 23.22070312 C2.26259766 23.22392578 1.27324219 23.22714844 0.25390625 23.23046875 C-1.12075806 23.23832397 -1.12075806 23.23832397 -2.52319336 23.24633789 C-4.65625 23.1328125 -4.65625 23.1328125 -5.65625 22.1328125 C-5.75524523 20.58325691 -5.78704524 19.02927577 -5.7890625 17.4765625 C-5.79035156 16.53683594 -5.79164063 15.59710938 -5.79296875 14.62890625 C-5.78910156 13.64019531 -5.78523438 12.65148437 -5.78125 11.6328125 C-5.78511719 10.64410156 -5.78898437 9.65539062 -5.79296875 8.63671875 C-5.79167969 7.69699219 -5.79039062 6.75726563 -5.7890625 5.7890625 C-5.78793457 4.92087891 -5.78680664 4.05269531 -5.78564453 3.15820312 C-5.53743012 -0.72705485 -3.37439254 0.00438395 0 0 Z " fill="#231F20" transform="translate(500.65625,366.8671875)"/>
<path d="M0 0 C1.40958984 -0.00193359 1.40958984 -0.00193359 2.84765625 -0.00390625 C3.83636719 -0.00003906 4.82507813 0.00382812 5.84375 0.0078125 C7.32681641 0.00201172 7.32681641 0.00201172 8.83984375 -0.00390625 C9.77957031 -0.00261719 10.71929687 -0.00132812 11.6875 0 C12.55568359 0.00112793 13.42386719 0.00225586 14.31835938 0.00341797 C16.34375 0.1328125 16.34375 0.1328125 17.34375 1.1328125 C17.44274523 2.68236809 17.47454524 4.23634923 17.4765625 5.7890625 C17.47849609 7.19865234 17.47849609 7.19865234 17.48046875 8.63671875 C17.47660156 9.62542969 17.47273438 10.61414063 17.46875 11.6328125 C17.47455078 13.11587891 17.47455078 13.11587891 17.48046875 14.62890625 C17.47917969 15.56863281 17.47789062 16.50835937 17.4765625 17.4765625 C17.47543457 18.34474609 17.47430664 19.21292969 17.47314453 20.10742188 C17.34375 22.1328125 17.34375 22.1328125 16.34375 23.1328125 C14.70902118 23.21981592 13.07060945 23.23982313 11.43359375 23.23046875 C10.44423828 23.22724609 9.45488281 23.22402344 8.43554688 23.22070312 C7.39462891 23.21232422 6.35371094 23.20394531 5.28125 23.1953125 C4.23646484 23.19080078 3.19167969 23.18628906 2.11523438 23.18164062 C-0.4753166 23.16981163 -3.06575559 23.15332939 -5.65625 23.1328125 C-5.68512512 19.48699563 -5.70300585 15.84120787 -5.71875 12.1953125 C-5.72712891 11.15439453 -5.73550781 10.11347656 -5.74414062 9.04101562 C-5.74897461 7.55698242 -5.74897461 7.55698242 -5.75390625 6.04296875 C-5.75914307 5.12652588 -5.76437988 4.21008301 -5.76977539 3.26586914 C-5.55776486 -0.71764922 -3.47735337 0.00451772 0 0 Z " fill="#242121" transform="translate(467.65625,366.8671875)"/>
<path d="M0 0 C1.40958984 -0.00193359 1.40958984 -0.00193359 2.84765625 -0.00390625 C3.83636719 -0.00003906 4.82507813 0.00382812 5.84375 0.0078125 C7.32681641 0.00201172 7.32681641 0.00201172 8.83984375 -0.00390625 C9.77957031 -0.00261719 10.71929687 -0.00132812 11.6875 0 C12.55568359 0.00112793 13.42386719 0.00225586 14.31835938 0.00341797 C16.34375 0.1328125 16.34375 0.1328125 17.34375 1.1328125 C17.44274523 2.68236809 17.47454524 4.23634923 17.4765625 5.7890625 C17.47849609 7.19865234 17.47849609 7.19865234 17.48046875 8.63671875 C17.47660156 9.62542969 17.47273437 10.61414063 17.46875 11.6328125 C17.47455078 13.11587891 17.47455078 13.11587891 17.48046875 14.62890625 C17.47917969 15.56863281 17.47789062 16.50835937 17.4765625 17.4765625 C17.47543457 18.34474609 17.47430664 19.21292969 17.47314453 20.10742188 C17.34375 22.1328125 17.34375 22.1328125 16.34375 23.1328125 C14.79419441 23.23180773 13.24021327 23.26360774 11.6875 23.265625 C10.27791016 23.26755859 10.27791016 23.26755859 8.83984375 23.26953125 C7.85113281 23.26566406 6.86242187 23.26179688 5.84375 23.2578125 C4.85503906 23.26167969 3.86632812 23.26554687 2.84765625 23.26953125 C1.90792969 23.26824219 0.96820313 23.26695312 0 23.265625 C-0.86818359 23.26449707 -1.73636719 23.26336914 -2.63085938 23.26220703 C-4.65625 23.1328125 -4.65625 23.1328125 -5.65625 22.1328125 C-5.75524523 20.58325691 -5.78704524 19.02927577 -5.7890625 17.4765625 C-5.79035156 16.53683594 -5.79164063 15.59710938 -5.79296875 14.62890625 C-5.78910156 13.64019531 -5.78523438 12.65148437 -5.78125 11.6328125 C-5.78511719 10.64410156 -5.78898437 9.65539062 -5.79296875 8.63671875 C-5.79167969 7.69699219 -5.79039062 6.75726563 -5.7890625 5.7890625 C-5.78793457 4.92087891 -5.78680664 4.05269531 -5.78564453 3.15820312 C-5.53743012 -0.72705485 -3.37439254 0.00438395 0 0 Z " fill="#242021" transform="translate(500.65625,398.8671875)"/>
<path d="M0 0 C4.67692308 1.47692308 4.67692308 1.47692308 6.3125 4.125 C6.539375 4.74375 6.76625 5.3625 7 6 C7.33 5.34 7.66 4.68 8 4 C8.99 4 9.98 4 11 4 C11.17475486 10.081469 10.58762024 15.65719168 9.4375 21.625 C9.26766602 22.51856201 9.09783203 23.41212402 8.92285156 24.33276367 C6.80845511 34.81103559 3.46751739 44.9029753 0 55 C-1.32 54.67 -2.64 54.34 -4 54 C-3.814375 53.401875 -3.62875 52.80375 -3.4375 52.1875 C-2.77906313 49.83591238 -2.77906313 49.83591238 -4 47 C-6.00016466 45.79117904 -6.00016466 45.79117904 -8 45 C-8 43.35 -8 41.7 -8 40 C-8.99 39.67 -9.98 39.34 -11 39 C-10.54109375 38.56429687 -10.0821875 38.12859375 -9.609375 37.6796875 C-1.666102 29.97004018 2.04813048 23.54032386 2.25 12.4375 C2.27200684 7.85457527 1.62574288 4.29015483 0 0 Z " fill="#252323" transform="translate(686,506)"/>
<path d="M0 0 C0.66 1.32 1.32 2.64 2 4 C1.67 4.33 1.34 4.66 1 5 C96.37 5 191.74 5 290 5 C290 5.66 290 6.32 290 7 C193.64 7 97.28 7 -2 7 C-1.34 4.69 -0.68 2.38 0 0 Z " fill="#323232" transform="translate(346,572)"/>
<path d="M0 0 C0.66 0.33 1.32 0.66 2 1 C3.52157338 1.09816283 5.04737841 1.13384447 6.57210732 1.1386652 C8.02543132 1.14687687 8.02543132 1.14687687 9.50811541 1.15525442 C11.1160659 1.15672158 11.1160659 1.15672158 12.75650024 1.15821838 C14.45577952 1.16562535 14.45577952 1.16562535 16.18938768 1.17318195 C20.01118529 1.18862312 23.83296602 1.19693544 27.65478516 1.20532227 C30.38411331 1.21434379 33.11343521 1.22486156 35.84275818 1.23532104 C41.73207519 1.25710347 47.62139446 1.27524148 53.51073074 1.29092598 C62.02579203 1.31360855 70.54082832 1.3417536 79.05586843 1.37124526 C92.86991689 1.41894097 106.68397555 1.46219978 120.49804688 1.50268555 C133.91960444 1.54203041 147.34115292 1.5834542 160.76269531 1.62768555 C161.58956764 1.63040982 162.41643997 1.63313409 163.26836903 1.63594092 C167.41641562 1.64962023 171.56446206 1.66334053 175.71250844 1.67708123 C210.14165353 1.7910771 244.57081769 1.89787956 279 2 C279 1.34 279 0.68 279 0 C283 0 283 0 286 1 C286 1.66 286 2.32 286 3 C190.63 3 95.26 3 -3 3 C-2.01 2.67 -1.02 2.34 0 2 C0 1.34 0 0.68 0 0 Z " fill="#1A1A1A" transform="translate(349,575)"/>
<path d="M0 0 C3.86674981 4.58176924 7.07944736 9.52691505 10.3125 14.5625 C10.87517578 15.41263672 11.43785156 16.26277344 12.01757812 17.13867188 C12.54416016 17.96044922 13.07074219 18.78222656 13.61328125 19.62890625 C14.09579346 20.37213135 14.57830566 21.11535645 15.07543945 21.88110352 C16.17302459 24.39653563 15.94902841 25.47556301 15 28 C13.35 27.67 11.7 27.34 10 27 C9.67 27.99 9.34 28.98 9 30 C8.67 29.34 8.34 28.68 8 28 C6.35 28 4.7 28 3 28 C2.3012307 26.23358317 1.61633417 24.46167336 0.9375 22.6875 C0.55464844 21.70136719 0.17179688 20.71523438 -0.22265625 19.69921875 C-1.38117245 15.67643134 0.47648453 12.75800482 2 9 C1.34 8.34 0.68 7.68 0 7 C0.66 7 1.32 7 2 7 C2 6.01 2 5.02 2 4 C1.01 3.67 0.02 3.34 -1 3 C-0.67 2.01 -0.34 1.02 0 0 Z " fill="#232021" transform="translate(604,500)"/>
<path d="M0 0 C1 2 1 2 0.3984375 3.86914062 C0.06070312 4.62388672 -0.27703125 5.37863281 -0.625 6.15625 C-0.99890869 7.00614502 -1.37281738 7.85604004 -1.75805664 8.73168945 C-2.16789795 9.64523193 -2.57773926 10.55877441 -3 11.5 C-7.27901926 21.23500051 -11.22546812 31.05999483 -15 41 C-17.38564077 40.42415568 -19.66682784 39.77772405 -22 39 C-22.33 39.66 -22.66 40.32 -23 41 C-23.66 41 -24.32 41 -25 41 C-23.59214181 37.1379203 -21.7813857 33.87796774 -19.55078125 30.4296875 C-18.86693359 29.3675 -18.18308594 28.3053125 -17.47851562 27.2109375 C-16.76373047 26.11007812 -16.04894531 25.00921875 -15.3125 23.875 C-13.91264276 21.70580509 -12.51290231 19.53653481 -11.11328125 17.3671875 C-10.43088379 16.31241211 -9.74848633 15.25763672 -9.04541016 14.17089844 C-6.00766111 9.46162598 -3.00141964 4.73248472 0 0 Z " fill="#F1F0F1" transform="translate(361,534)"/>
<path d="M0 0 C2.07934084 3.11901126 3.38434303 6.10527328 4.8203125 9.56640625 C5.21559647 10.51845192 5.21559647 10.51845192 5.61886597 11.48973083 C6.17345796 12.8280212 6.72641178 14.16699145 7.27783203 15.5065918 C8.12419857 17.56055509 8.97776246 19.61142215 9.83203125 21.66210938 C10.37022714 22.96336164 10.90800214 24.26478808 11.4453125 25.56640625 C11.93531738 26.75177979 12.42532227 27.93715332 12.93017578 29.15844727 C14 32 14 32 14 34 C11.525 34.495 11.525 34.495 9 35 C9 34.34 9 33.68 9 33 C8.34 32.67 7.68 32.34 7 32 C3.5597728 28.5597728 2.09278757 23.72575797 0.3125 19.3125 C-0.02072266 18.53455078 -0.35394531 17.75660156 -0.69726562 16.95507812 C-2.90531849 11.45101287 -3.20334005 7.81725163 -2 2 C-1.34 2 -0.68 2 0 2 C0 1.34 0 0.68 0 0 Z " fill="#2B292A" transform="translate(621,542)"/>
<path d="M0 0 C4.67692308 1.47692308 4.67692308 1.47692308 6.3125 4.125 C6.539375 4.74375 6.76625 5.3625 7 6 C7.33 5.34 7.66 4.68 8 4 C8.99 4 9.98 4 11 4 C11.24856408 10.58694802 10.31547023 16.55597352 9 23 C8.80921875 23.96550781 8.6184375 24.93101562 8.421875 25.92578125 C7.95464658 28.28528478 7.48056564 30.64318339 7 33 C6.34 32.01 5.68 31.02 5 30 C4.278125 29.236875 3.55625 28.47375 2.8125 27.6875 C0.45467297 24.19141165 1.21873782 23.04791465 2 19 C2.11295967 16.83537744 2.17459804 14.66752952 2.1875 12.5 C2.20167969 11.4171875 2.21585938 10.334375 2.23046875 9.21875 C1.98911743 5.84801295 1.19908096 3.1469951 0 0 Z " fill="#2D2B2C" transform="translate(686,506)"/>
<path d="M0 0 C4 3 4 3 6 5 C6.66 4.67 7.32 4.34 8 4 C7.91266424 5.60517097 7.80447776 7.20921662 7.6875 8.8125 C7.62949219 9.70582031 7.57148438 10.59914063 7.51171875 11.51953125 C6.92397875 14.36849996 6.11363072 15.1037092 4 17 C3.67 17.99 3.34 18.98 3 20 C1 20 1 20 -0.5 18.625 C-0.995 18.08875 -1.49 17.5525 -2 17 C-4.10540926 14.68377223 -4.10540926 14.68377223 -8 13 C-5.36 8.71 -2.72 4.42 0 0 Z " fill="#262425" transform="translate(370,508)"/>
<path d="M0 0 C-0.33 0.99 -0.66 1.98 -1 3 C-1.99 3.33 -2.98 3.66 -4 4 C-4.59732819 6.76264289 -5 9.16032769 -5 12 C-6.65 11.34 -8.3 10.68 -10 10 C-10 10.66 -10 11.32 -10 12 C-10.66 12 -11.32 12 -12 12 C-12.103125 12.94875 -12.20625 13.8975 -12.3125 14.875 C-13 18 -13 18 -16 20 C-17.32 20 -18.64 20 -20 20 C-20 20.66 -20 21.32 -20 22 C-20.66 22 -21.32 22 -22 22 C-22 23.32 -22 24.64 -22 26 C-22.66 26.66 -23.32 27.32 -24 28 C-25.32 28 -26.64 28 -28 28 C-28.0825 28.5775 -28.165 29.155 -28.25 29.75 C-29.225982 32.67794601 -30.63511223 34.05244537 -33 36 C-33.99 36 -34.98 36 -36 36 C-36 36.66 -36 37.32 -36 38 C-36.66 38 -37.32 38 -38 38 C-38.33 38.66 -38.66 39.32 -39 40 C-39 37 -39 37 -37.60879517 35.23457336 C-36.95752655 34.58393417 -36.30625793 33.93329498 -35.63525391 33.26293945 C-34.90094147 32.52239822 -34.16662903 31.78185699 -33.4100647 31.01887512 C-32.60700897 30.22502914 -31.80395325 29.43118317 -30.9765625 28.61328125 C-30.16005219 27.79627243 -29.34354187 26.97926361 -28.50228882 26.13749695 C-26.77236898 24.4099205 -25.03874806 22.68604352 -23.30175781 20.96557617 C-20.63432293 18.32174045 -17.98045705 15.66483702 -15.328125 13.00585938 C-13.64922867 11.33253915 -11.96956674 9.65998666 -10.2890625 7.98828125 C-9.09055161 6.78840324 -9.09055161 6.78840324 -7.86782837 5.56428528 C-6.75690323 4.46765816 -6.75690323 4.46765816 -5.62353516 3.34887695 C-4.97067535 2.70062454 -4.31781555 2.05237213 -3.64517212 1.38447571 C-2 0 -2 0 0 0 Z " fill="#EFEFEF" transform="translate(428,372)"/>
<path d="M0 0 C0 0.66 0 1.32 0 2 C-0.66 2 -1.32 2 -2 2 C-2 2.66 -2 3.32 -2 4 C-2.66 4 -3.32 4 -4 4 C-4.59732819 6.76264289 -5 9.16032769 -5 12 C-5.99 11.67 -6.98 11.34 -8 11 C-10.14255793 11.38932856 -10.14255793 11.38932856 -12 12 C-12 12.66 -12 13.32 -12 14 C-12.66 14 -13.32 14 -14 14 C-14.66 15.32 -15.32 16.64 -16 18 C-16.66 18 -17.32 18 -18 18 C-18 18.66 -18 19.32 -18 20 C-18.66 20 -19.32 20 -20 20 C-20 20.66 -20 21.32 -20 22 C-20.66 22 -21.32 22 -22 22 C-21.67 23.32 -21.34 24.64 -21 26 C-21.78375 26.103125 -22.5675 26.20625 -23.375 26.3125 C-26.33045181 26.77595022 -26.33045181 26.77595022 -28 30 C-28.66 30 -29.32 30 -30 30 C-30.226875 30.5775 -30.45375 31.155 -30.6875 31.75 C-32.33708262 34.57785592 -34.39710359 36.04782769 -37 38 C-37.66 38.66 -38.32 39.32 -39 40 C-39 37 -39 37 -37.60879517 35.23457336 C-36.95752655 34.58393417 -36.30625793 33.93329498 -35.63525391 33.26293945 C-34.90094147 32.52239822 -34.16662903 31.78185699 -33.4100647 31.01887512 C-32.60700897 30.22502914 -31.80395325 29.43118317 -30.9765625 28.61328125 C-30.16005219 27.79627243 -29.34354187 26.97926361 -28.50228882 26.13749695 C-26.77236898 24.4099205 -25.03874806 22.68604352 -23.30175781 20.96557617 C-20.63432293 18.32174045 -17.98045705 15.66483702 -15.328125 13.00585938 C-13.64922867 11.33253915 -11.96956674 9.65998666 -10.2890625 7.98828125 C-9.09055161 6.78840324 -9.09055161 6.78840324 -7.86782837 5.56428528 C-6.75690323 4.46765816 -6.75690323 4.46765816 -5.62353516 3.34887695 C-4.97067535 2.70062454 -4.31781555 2.05237213 -3.64517212 1.38447571 C-2 0 -2 0 0 0 Z " fill="#EEEEEE" transform="translate(388,412)"/>
<path d="M0 0 C1.15392455 2.3078491 1.53437166 4.47230331 2 7 C1.01 7 0.02 7 -1 7 C-3.10820797 7.3185177 -3.10820797 7.3185177 -5 8 C-5.33 8.66 -5.66 9.32 -6 10 C-6.66 10 -7.32 10 -8 10 C-8.2475 10.5775 -8.495 11.155 -8.75 11.75 C-10.18299988 14.32939979 -11.78424676 16.06121592 -14 18 C-14.66 18 -15.32 18 -16 18 C-16.2475 18.5775 -16.495 19.155 -16.75 19.75 C-18.18299988 22.32939979 -19.78424676 24.06121592 -22 26 C-22.66 26 -23.32 26 -24 26 C-24.2475 26.5775 -24.495 27.155 -24.75 27.75 C-26.18299988 30.32939979 -27.78424676 32.06121592 -30 34 C-30.66 34 -31.32 34 -32 34 C-32.66 35.32 -33.32 36.64 -34 38 C-34.66 38 -35.32 38 -36 38 C-36 38.66 -36 39.32 -36 40 C-36.66 40 -37.32 40 -38 40 C-38 40.66 -38 41.32 -38 42 C-39.98 42.495 -39.98 42.495 -42 43 C-37.43852453 37.52686034 -32.59258679 32.46045191 -27.5390625 27.44140625 C-26.74849457 26.65225327 -25.95792664 25.86310028 -25.1434021 25.05003357 C-22.63962374 22.55181339 -20.13237525 20.05710956 -17.625 17.5625 C-15.91773752 15.86025792 -14.21070391 14.15778627 -12.50390625 12.45507812 C-8.33858102 8.30072637 -4.17040781 4.14924919 0 0 Z " fill="#EEEDED" transform="translate(470,328)"/>
<path d="M0 0 C1.95881942 3.27920881 2.05559492 3.76173604 1.125 7.75 C0.75375 8.8225 0.3825 9.895 0 11 C0.99 11 1.98 11 3 11 C2.54965877 12.62723299 2.08944646 14.25173664 1.625 15.875 C1.36976563 16.77992188 1.11453125 17.68484375 0.8515625 18.6171875 C0 21 0 21 -2 23 C-3.32 22.34 -4.64 21.68 -6 21 C-6.66 22.32 -7.32 23.64 -8 25 C-9 23 -9 23 -8.28735352 20.66162109 C-7.71392212 19.23197021 -7.71392212 19.23197021 -7.12890625 17.7734375 C-6.71962891 16.7421875 -6.31035156 15.7109375 -5.88867188 14.6484375 C-5.45103516 13.56820312 -5.01339844 12.48796875 -4.5625 11.375 C-3.9118457 9.74304688 -3.9118457 9.74304688 -3.24804688 8.078125 C-2.17219878 5.38259352 -1.08925535 2.69013541 0 0 Z " fill="#2E2D2E" transform="translate(356,547)"/>
<path d="M0 0 C2.13845555 2.01948134 3.76493759 4.00904064 5.3046875 6.51171875 C5.72363281 7.18783203 6.14257812 7.86394531 6.57421875 8.56054688 C7.00347656 9.26244141 7.43273437 9.96433594 7.875 10.6875 C8.29652344 11.37005859 8.71804688 12.05261719 9.15234375 12.75585938 C10.002443 14.13239624 10.85108184 15.5098361 11.69824219 16.88818359 C13.78230126 20.26911213 15.89093749 23.63463062 18 27 C15 27 15 27 13 26 C12.34 26.66 11.68 27.32 11 28 C9.3495102 24.08527941 7.70541932 20.16790309 6.0625 16.25 C5.59392578 15.13882813 5.12535156 14.02765625 4.64257812 12.8828125 C4.19462891 11.81289063 3.74667969 10.74296875 3.28515625 9.640625 C2.87144775 8.65610352 2.45773926 7.67158203 2.03149414 6.65722656 C1.16921025 4.43590163 0.50378487 2.32367756 0 0 Z " fill="#E2E1E1" transform="translate(618,534)"/>
<path d="M0 0 C0.66 0.66 1.32 1.32 2 2 C0.71034824 3.37562854 -0.62689293 4.70766393 -2 6 C-2.66 6 -3.32 6 -4 6 C-3.67 7.32 -3.34 8.64 -3 10 C-4.1446875 10.1546875 -4.1446875 10.1546875 -5.3125 10.3125 C-8.22117209 11.05657891 -9.38010972 11.48017068 -11 14 C-10.76956136 16.65466049 -10.76956136 16.65466049 -10 19 C-10.53625 19.12375 -11.0725 19.2475 -11.625 19.375 C-12.800625 19.684375 -12.800625 19.684375 -14 20 C-15.03125 20.268125 -16.0625 20.53625 -17.125 20.8125 C-20.4966683 22.2051456 -20.59429076 22.81372572 -22 26 C-23.62626404 27.38232443 -25.2925002 28.71937515 -27 30 C-27.66 30.66 -28.32 31.32 -29 32 C-29 29 -29 29 -27.89904785 27.5382843 C-27.38386597 27.02976425 -26.86868408 26.5212442 -26.33789062 25.99731445 C-25.46698792 25.12675163 -25.46698792 25.12675163 -24.57849121 24.23860168 C-23.94415161 23.61974594 -23.30981201 23.0008902 -22.65625 22.36328125 C-22.0125647 21.72384079 -21.36887939 21.08440033 -20.70568848 20.42558289 C-18.64404404 18.38075857 -16.57222339 16.34659755 -14.5 14.3125 C-13.10218283 12.92972529 -11.70503847 11.54627009 -10.30859375 10.16210938 C-6.88015899 6.76678817 -3.44256036 3.38099586 0 0 Z " fill="#F0EEEF" transform="translate(330,468)"/>
<path d="M0 0 C4.53786224 2.26893112 5.94678157 4.09866534 9 8 C8 9 8 9 5.45005798 9.12025452 C3.74795921 9.1169236 3.74795921 9.1169236 2.01147461 9.11352539 C0.73022202 9.11344986 -0.55103058 9.11337433 -1.87110901 9.11329651 C-3.27995848 9.10818909 -4.68880756 9.10297309 -6.09765625 9.09765625 C-7.53112234 9.09579202 -8.96458907 9.09436814 -10.39805603 9.09336853 C-14.17759957 9.08954372 -17.9571049 9.07971377 -21.7366333 9.06866455 C-25.59069298 9.05844963 -29.44475882 9.05387074 -33.29882812 9.04882812 C-40.86590287 9.03809146 -48.43294609 9.02101549 -56 9 C-56 8.67 -56 8.34 -56 8 C-35.54 8 -15.08 8 6 8 C4.02 5.36 2.04 2.72 0 0 Z " fill="#7D7A7B" transform="translate(576,511)"/>
<path d="M0 0 C3.93281241 1.57312496 5.69057041 2.4739697 7.875 6.1875 C8.24625 7.115625 8.6175 8.04375 9 9 C8.01 9.33 7.02 9.66 6 10 C6 12.31 6 14.62 6 17 C5.67 16.34 5.34 15.68 5 15 C4.34 15 3.68 15 3 15 C-1.68688577 5.3960689 -1.68688577 5.3960689 -1 1 C-0.67 0.67 -0.34 0.34 0 0 Z " fill="#F4F3F4" transform="translate(631,559)"/>
<path d="M0 0 C1.32 0.66 2.64 1.32 4 2 C1.5248518 4.50400643 -0.95576894 7.00251906 -3.4375 9.5 C-4.49807617 10.57314453 -4.49807617 10.57314453 -5.58007812 11.66796875 C-6.25361328 12.34472656 -6.92714844 13.02148438 -7.62109375 13.71875 C-8.2442749 14.34716797 -8.86745605 14.97558594 -9.50952148 15.62304688 C-11 17 -11 17 -12 17 C-11.67 14.69 -11.34 12.38 -11 10 C-10.01 10.33 -9.02 10.66 -8 11 C-7.896875 10.360625 -7.79375 9.72125 -7.6875 9.0625 C-7.460625 8.381875 -7.23375 7.70125 -7 7 C-6.01 6.67 -5.02 6.34 -4 6 C-3.26676204 3.98491642 -3.26676204 3.98491642 -3 2 C-2.01 2 -1.02 2 0 2 C0 1.34 0 0.68 0 0 Z " fill="#2C2B2B" transform="translate(348,445)"/>
<path d="M0 0 C0.87371246 0.16076523 1.74742493 0.32153046 2.64761353 0.48716736 C5.6970784 0.95366045 8.55841883 1.1547158 11.63818359 1.20532227 C12.71885101 1.22526749 13.79951843 1.24521271 14.91293335 1.26576233 C16.06314972 1.28247482 17.21336609 1.29918732 18.3984375 1.31640625 C20.18358261 1.3475779 20.18358261 1.3475779 22.00479126 1.37937927 C25.79480385 1.44460095 29.58488391 1.50363234 33.375 1.5625 C35.94922564 1.60571126 38.52344453 1.64932638 41.09765625 1.69335938 C47.39836682 1.80025425 53.69914404 1.90207088 60 2 C60 2.33 60 2.66 60 3 C40.2 3 20.4 3 0 3 C0 2.01 0 1.02 0 0 Z " fill="#F2F2F2" transform="translate(529,459)"/>
<path d="M0 0 C5.08474576 5.93220339 5.08474576 5.93220339 6 10 C5.2884375 11.11375 5.2884375 11.11375 4.5625 12.25 C1.75616045 17.18915762 3.6113378 22.72068941 5 28 C4.34 28 3.68 28 3 28 C2.3012307 26.23358317 1.61633417 24.46167336 0.9375 22.6875 C0.55464844 21.70136719 0.17179688 20.71523438 -0.22265625 19.69921875 C-1.38117245 15.67643134 0.47648453 12.75800482 2 9 C1.34 8.34 0.68 7.68 0 7 C0.66 7 1.32 7 2 7 C2 6.01 2 5.02 2 4 C1.01 3.67 0.02 3.34 -1 3 C-0.67 2.01 -0.34 1.02 0 0 Z " fill="#555253" transform="translate(604,500)"/>
<path d="M0 0 C3 0 3 0 6 1 C6 4.63 6 8.26 6 12 C5.01 12 4.02 12 3 12 C2.01 12.495 2.01 12.495 1 13 C0.34 12.34 -0.32 11.68 -1 11 C-0.9765625 8.3984375 -0.9765625 8.3984375 -0.625 5.375 C-0.51414062 4.37210938 -0.40328125 3.36921875 -0.2890625 2.3359375 C-0.19367188 1.56507813 -0.09828125 0.79421875 0 0 Z " fill="#343233" transform="translate(285,512)"/>
<path d="M0 0 C1.68178661 2.52267991 2.90106742 4.81091823 4.125 7.5625 C4.47820313 8.34753906 4.83140625 9.13257813 5.1953125 9.94140625 C6 12 6 12 6 14 C4.35 14.33 2.7 14.66 1 15 C1 14.34 1 13.68 1 13 C0.34 12.67 -0.32 12.34 -1 12 C-2 11 -2 11 -3 8 C-2.34 8 -1.68 8 -1 8 C-1.020625 7.05125 -1.04125 6.1025 -1.0625 5.125 C-1 2 -1 2 0 0 Z " fill="#323031" transform="translate(629,562)"/>
<path d="M0 0 C1.50433594 0.01353516 1.50433594 0.01353516 3.0390625 0.02734375 C3.80992187 0.03894531 4.58078125 0.05054688 5.375 0.0625 C4.5 4.8125 4.5 4.8125 3.375 7.0625 C-1.13302601 5.80444623 -4.1162812 4.15842835 -7.625 1.0625 C-4.98041621 -0.25979189 -2.94738699 -0.03427194 0 0 Z " fill="#2B2829" transform="translate(386.625,664.9375)"/>
<path d="M0 0 C0.33 0 0.66 0 1 0 C1.33 1.98 1.66 3.96 2 6 C2.66 4.68 3.32 3.36 4 2 C5.30765478 5.92296433 5.1971417 8.86002433 5 13 C3 15 3 15 0 16 C-0.9360342 12.20732808 -0.98276252 9.06325435 -0.5625 5.1875 C-0.40974609 3.72376953 -0.40974609 3.72376953 -0.25390625 2.23046875 C-0.12822266 1.12638672 -0.12822266 1.12638672 0 0 Z " fill="#1E1C1D" transform="translate(690,515)"/>
<path d="M0 0 C3.10468986 2.54020079 3.98485936 5.17370067 5 9 C5 10.32 5 11.64 5 13 C4.34 13 3.68 13 3 13 C2.67 13.99 2.34 14.98 2 16 C1.34 16 0.68 16 0 16 C-0.91397824 10.31302429 -0.91397824 5.68697571 0 0 Z " fill="#302D2E" transform="translate(729,520)"/>
<path d="M0 0 C3.47914941 -0.02887814 6.95826831 -0.04675687 10.4375 -0.0625 C11.92733398 -0.07506836 11.92733398 -0.07506836 13.44726562 -0.08789062 C14.39150391 -0.09111328 15.33574219 -0.09433594 16.30859375 -0.09765625 C17.62041626 -0.10551147 17.62041626 -0.10551147 18.95874023 -0.11352539 C21 0 21 0 22 1 C22.08631874 2.34267413 22.10706473 3.68974322 22.09765625 5.03515625 C22.09443359 5.84404297 22.09121094 6.65292969 22.08789062 7.48632812 C22.07951172 8.33646484 22.07113281 9.18660156 22.0625 10.0625 C22.05798828 10.91650391 22.05347656 11.77050781 22.04882812 12.65039062 C22.03700373 14.76695663 22.01906769 16.88348685 22 19 C21.67 19 21.34 19 21 19 C20.505 12.565 20.505 12.565 20 6 C19.34 6.66 18.68 7.32 18 8 C18 6.02 18 4.04 18 2 C18.66 1.67 19.32 1.34 20 1 C13.4 1 6.8 1 0 1 C0 0.67 0 0.34 0 0 Z " fill="#383637" transform="translate(496,367)"/>
<path d="M0 0 C2.33364352 2.92903058 4.04960836 5.88568203 5.6875 9.25 C6.12449219 10.14203125 6.56148438 11.0340625 7.01171875 11.953125 C7.33785156 12.62859375 7.66398437 13.3040625 8 14 C6.68 14.99 5.36 15.98 4 17 C3.49632243 15.54293274 2.99717444 14.08429904 2.5 12.625 C2.2215625 11.81289063 1.943125 11.00078125 1.65625 10.1640625 C1 8 1 8 1 6 C0.34 6 -0.32 6 -1 6 C-0.67 4.02 -0.34 2.04 0 0 Z " fill="#2C2B2C" transform="translate(274,599)"/>
<path d="M0 0 C0.66 0.99 1.32 1.98 2 3 C-1.3 6.3 -4.6 9.6 -8 13 C-8.99 12.34 -9.98 11.68 -11 11 C-10.67 10.34 -10.34 9.68 -10 9 C-9.34 9.33 -8.68 9.66 -8 10 C-7.896875 9.360625 -7.79375 8.72125 -7.6875 8.0625 C-7.460625 7.381875 -7.23375 6.70125 -7 6 C-6.01 5.67 -5.02 5.34 -4 5 C-2.79117904 2.99983534 -2.79117904 2.99983534 -2 1 C-1.34 1.33 -0.68 1.66 0 2 C0 1.34 0 0.68 0 0 Z " fill="#2B2B2B" transform="translate(444,350)"/>
<path d="M0 0 C0.33 0 0.66 0 1 0 C0.98839844 0.98742187 0.97679687 1.97484375 0.96484375 2.9921875 C0.95582031 4.27351562 0.94679688 5.55484375 0.9375 6.875 C0.92589844 8.15117188 0.91429687 9.42734375 0.90234375 10.7421875 C0.76823431 13.88664652 0.76823431 13.88664652 2 16 C2.66 15.34 3.32 14.68 4 14 C4.84098656 18.01804691 5.05404945 21.01803543 4 25 C3.34 24.01 2.68 23.02 2 22 C0.92492187 20.94232422 0.92492187 20.94232422 -0.171875 19.86328125 C-2.78601981 15.76890488 -2.02775631 12.82681637 -1.25 8.1875 C-1.1365625 7.39923828 -1.023125 6.61097656 -0.90625 5.79882812 C-0.62464532 3.86279593 -0.31507003 1.93086839 0 0 Z " fill="#4A4748" transform="translate(689,514)"/>
<path d="M0 0 C0.99 0 1.98 0 3 0 C4.0326802 2.78823655 4.04509293 3.8677274 3.0625 6.75 C2.711875 7.4925 2.36125 8.235 2 9 C0.68 8.34 -0.64 7.68 -2 7 C-2.66 7.99 -3.32 8.98 -4 10 C-5.2077558 6.37673261 -4.54311128 5.35853631 -3 2 C-2.34 2 -1.68 2 -1 2 C-0.67 1.34 -0.34 0.68 0 0 Z " fill="#2C2A2B" transform="translate(362,538)"/>
<path d="M0 0 C2.64 0 5.28 0 8 0 C9 2 10 4 11 6 C11.99 6.66 12.98 7.32 14 8 C13.34 8 12.68 8 12 8 C11.67 8.66 11.34 9.32 11 10 C9.72799029 8.89718873 8.45744147 7.79269231 7.1875 6.6875 C6.47980469 6.07261719 5.77210938 5.45773437 5.04296875 4.82421875 C3.29863261 3.26665665 1.63221959 1.67341125 0 0 Z " fill="#312F30" transform="translate(638,299)"/>
<path d="M0 0 C0.94875 0.04125 1.8975 0.0825 2.875 0.125 C2.875 1.115 2.875 2.105 2.875 3.125 C-1.085 5.105 -5.045 7.085 -9.125 9.125 C-9.125 8.465 -9.125 7.805 -9.125 7.125 C-8.465 7.125 -7.805 7.125 -7.125 7.125 C-6.83625 6.34125 -6.5475 5.5575 -6.25 4.75 C-4.67213767 1.06832122 -4.09004172 0.16360167 0 0 Z " fill="#282627" transform="translate(596.125,664.875)"/>
<path d="M0 0 C1.16796875 1.84765625 1.16796875 1.84765625 2.1875 4.0625 C2.53167969 4.79597656 2.87585938 5.52945313 3.23046875 6.28515625 C3.48441406 6.85105469 3.73835937 7.41695312 4 8 C1.525 7.01 1.525 7.01 -1 6 C-1.66 6.66 -2.32 7.32 -3 8 C-3.99 5.36 -4.98 2.72 -6 0 C-3 -1 -3 -1 0 0 Z " fill="#E9E9E9" transform="translate(632,554)"/>
<path d="M0 0 C0.33 0 0.66 0 1 0 C1.55353075 10.55808656 1.55353075 10.55808656 -2 15 C-2.99 14.67 -3.98 14.34 -5 14 C-3.45730076 9.27934033 -1.92205381 4.58335908 0 0 Z " fill="#312E2F" transform="translate(716,574)"/>
<path d="M0 0 C-0.45034123 1.62723299 -0.91055354 3.25173664 -1.375 4.875 C-1.63023437 5.77992188 -1.88546875 6.68484375 -2.1484375 7.6171875 C-3 10 -3 10 -5 12 C-7.62386487 8.93882432 -8 8.26826873 -8 4 C-2.88888889 0 -2.88888889 0 0 0 Z " fill="#343434" transform="translate(608,454)"/>
<path d="M0 0 C1.32 0.66 2.64 1.32 4 2 C2.52386015 3.50297876 1.04400843 5.00231285 -0.4375 6.5 C-1.26121094 7.3353125 -2.08492188 8.170625 -2.93359375 9.03125 C-5 11 -5 11 -6 11 C-6 9.35 -6 7.7 -6 6 C-5.34 6 -4.68 6 -4 6 C-3.67 4.68 -3.34 3.36 -3 2 C-2.01 2 -1.02 2 0 2 C0 1.34 0 0.68 0 0 Z " fill="#2D2B2C" transform="translate(316,477)"/>
<path d="M0 0 C1.98 0.66 3.96 1.32 6 2 C5.67 4.64 5.34 7.28 5 10 C4.01 10 3.02 10 2 10 C0.68373308 6.38026598 0 3.90432869 0 0 Z " fill="#242223" transform="translate(623,560)"/>
<path d="M0 0 C0.33 0.66 0.66 1.32 1 2 C0.13986463 4.42188287 -0.77684099 6.71765578 -1.8125 9.0625 C-2.08642578 9.71283203 -2.36035156 10.36316406 -2.64257812 11.03320312 C-4.74175664 15.87087832 -4.74175664 15.87087832 -7 17 C-7.99 17 -8.98 17 -10 17 C-6.84985504 11.20909522 -3.55506117 5.55194659 0 0 Z " fill="#D9D7D8" transform="translate(361,534)"/>
<path d="M0 0 C0.33 0.66 0.66 1.32 1 2 C1.66 2.33 2.32 2.66 3 3 C0.69 5.31 -1.62 7.62 -4 10 C-5.32 9.34 -6.64 8.68 -8 8 C-7.01 7.67 -6.02 7.34 -5 7 C-4.26676204 4.98491642 -4.26676204 4.98491642 -4 3 C-3.01 3 -2.02 3 -1 3 C-0.67 2.01 -0.34 1.02 0 0 Z " fill="#2A292A" transform="translate(357,436)"/>
<path d="M0 0 C1.32 0.66 2.64 1.32 4 2 C3.67 2.99 3.34 3.98 3 5 C-0.28894929 6.44801086 -2.47205559 5.76762662 -5.75 4.5625 C-6.54921875 4.27503906 -7.3484375 3.98757813 -8.171875 3.69140625 C-8.77515625 3.46324219 -9.3784375 3.23507812 -10 3 C-6.1496895 0.43312633 -4.41430237 1.16711276 0 2 C0 1.34 0 0.68 0 0 Z " fill="#312F30" transform="translate(572,257)"/>
<path d="M0 0 C1.32 1.65 2.64 3.3 4 5 C3.34 5.66 2.68 6.32 2 7 C1.30251417 8.31747324 0.63040043 9.64914193 0 11 C-1.32 9.35 -2.64 7.7 -4 6 C-2.68 4.02 -1.36 2.04 0 0 Z " fill="#303030" transform="translate(627,536)"/>
<path d="M0 0 C0.33 0.66 0.66 1.32 1 2 C1.66 2.33 2.32 2.66 3 3 C3 3.66 3 4.32 3 5 C3.33 5.99 3.66 6.98 4 8 C-1.75 12 -1.75 12 -4 12 C-2.66666667 8 -1.33333333 4 0 0 Z " fill="#404040" transform="translate(505,516)"/>
<path d="M0 0 C4.54075781 4.14010271 7.71842138 8.82390176 11 14 C10.01 14 9.02 14 8 14 C8 13.34 8 12.68 8 12 C7.01 11.67 6.02 11.34 5 11 C1.59197613 7.49174013 0.45157023 4.85437999 0 0 Z " fill="#353434" transform="translate(646,352)"/>
<path d="M0 0 C3.33333333 1.66666667 6.66666667 3.33333333 10 5 C10 5.66 10 6.32 10 7 C7.69 7.33 5.38 7.66 3 8 C0 2.25 0 2.25 0 0 Z " fill="#333333" transform="translate(372,454)"/>
<path d="M0 0 C-6.15034169 7.48291572 -6.15034169 7.48291572 -10 10 C-10 8.35 -10 6.7 -10 5 C-9.34 5 -8.68 5 -8 5 C-7.87625 4.360625 -7.7525 3.72125 -7.625 3.0625 C-7.41875 2.381875 -7.2125 1.70125 -7 1 C-4.53721199 -0.231394 -2.7204945 -0.07159196 0 0 Z " fill="#2D2C2C" transform="translate(456,342)"/>
<path d="M0 0 C1.07355928 3.22067784 1 5.62824034 1 9 C1.43941523 11.26566343 1.43941523 11.26566343 2 13 C-0.475 12.01 -0.475 12.01 -3 11 C-3.32613618 6.32538149 -2.70582788 3.83325617 0 0 Z " fill="#201B1D" transform="translate(609,510)"/>
<path d="M0 0 C4.2742558 1.5830577 6.26531794 4.50568404 9 8 C8.01 8.495 8.01 8.495 7 9 C4.875 8.0625 4.875 8.0625 3 7 C3 6.34 3 5.68 3 5 C1.68 4.34 0.36 3.68 -1 3 C-0.67 2.01 -0.34 1.02 0 0 Z " fill="#2C2B2B" transform="translate(635,342)"/>
<path d="M0 0 C0.33 0 0.66 0 1 0 C1.19466332 1.79090253 1.38051213 3.58276505 1.5625 5.375 C1.66691406 6.37273438 1.77132813 7.37046875 1.87890625 8.3984375 C2 11 2 11 1 13 C-2.18923033 8.81413519 -3.50423019 6.29441695 -3 1 C-2.01 1.495 -2.01 1.495 -1 2 C-0.67 1.34 -0.34 0.68 0 0 Z " fill="#2C2A2B" transform="translate(317,595)"/>
<path d="M0 0 C1.07999887 3.2399966 0.92129428 4.38363535 0.1875 7.625 C0.01605469 8.42164063 -0.15539062 9.21828125 -0.33203125 10.0390625 C-1 12 -1 12 -3 13 C-3.33 13.99 -3.66 14.98 -4 16 C-4.66 15.67 -5.32 15.34 -6 15 C-5.19093245 12.68624595 -4.37793083 10.37401052 -3.5625 8.0625 C-3.33240234 7.40314453 -3.10230469 6.74378906 -2.86523438 6.06445312 C-1.11328125 1.11328125 -1.11328125 1.11328125 0 0 Z " fill="#636162" transform="translate(377,512)"/>
<path d="M0 0 C0.66 0 1.32 0 2 0 C2.53229326 1.26607607 3.05044544 2.53810412 3.5625 3.8125 C3.85253906 4.52019531 4.14257812 5.22789062 4.44140625 5.95703125 C5 8 5 8 4 11 C2.02 10.01 0.04 9.02 -2 8 C-1.34 7.67 -0.68 7.34 0 7 C0 4.69 0 2.38 0 0 Z " fill="#393738" transform="translate(473,516)"/>
<path d="M0 0 C0.99 0.66 1.98 1.32 3 2 C1.02 4.31 -0.96 6.62 -3 9 C-4.32 8.34 -5.64 7.68 -7 7 C-4.69 4.69 -2.38 2.38 0 0 Z " fill="#2B292A" transform="translate(663,658)"/>
<path d="M0 0 C1.32 0.66 2.64 1.32 4 2 C1.69 4.31 -0.62 6.62 -3 9 C-3.99 8.67 -4.98 8.34 -6 8 C-6 7.34 -6 6.68 -6 6 C-5.34 6 -4.68 6 -4 6 C-3.34 4.68 -2.68 3.36 -2 2 C-1.34 2.33 -0.68 2.66 0 3 C0 2.01 0 1.02 0 0 Z " fill="#2D2B2C" transform="translate(324,469)"/>
<path d="M0 0 C0.474375 0.474375 0.94875 0.94875 1.4375 1.4375 C5.11644797 3.68076096 8.7621112 3.73739578 13 4 C13 4.33 13 4.66 13 5 C7.39 5 1.78 5 -4 5 C-4 4.01 -4 3.02 -4 2 C-2.68 1.34 -1.36 0.68 0 0 Z " fill="#1A1819" transform="translate(500,385)"/>
<path d="M0 0 C0.66 0.99 1.32 1.98 2 3 C1.67 3.66 1.34 4.32 1 5 C0.01 5 -0.98 5 -2 5 C-2.66 7.31 -3.32 9.62 -4 12 C-4.66 11.67 -5.32 11.34 -6 11 C-4.54955729 6.89041233 -2.48889248 3.56741255 0 0 Z M0 5 C1.485 5.99 1.485 5.99 3 7 C2.67 7.66 2.34 8.32 2 9 C1.34 7.68 0.68 6.36 0 5 Z " fill="#353535" transform="translate(344,549)"/>
<path d="M0 0 C2.50298434 2.93828597 3.46930939 5.17902761 4 9 C2.35 9.33 0.7 9.66 -1 10 C-1.02689216 8.52093108 -1.04634621 7.04172517 -1.0625 5.5625 C-1.07410156 4.73878906 -1.08570313 3.91507813 -1.09765625 3.06640625 C-1 1 -1 1 0 0 Z " fill="#1E1C1D" transform="translate(688,530)"/>
<path d="M0 0 C0.66 0.66 1.32 1.32 2 2 C0.34703566 6.09305456 -1.13546142 9.58983503 -4 13 C-4.66 12.01 -5.32 11.02 -6 10 C-4.02 6.7 -2.04 3.4 0 0 Z " fill="#E5E4E4" transform="translate(669,595)"/>
<path d="M0 0 C0.66 0 1.32 0 2 0 C2.66 1.65 3.32 3.3 4 5 C2.68 6.32 1.36 7.64 0 9 C0 8.34 0 7.68 0 7 C-0.66 6.67 -1.32 6.34 -2 6 C-1.34 4.02 -0.68 2.04 0 0 Z " fill="#222222" transform="translate(342,554)"/>
<path d="M0 0 C0.268125 0.61875 0.53625 1.2375 0.8125 1.875 C1.95556848 4.2995233 1.95556848 4.2995233 5 6 C4.34 6.66 3.68 7.32 3 8 C2.01 7.67 1.02 7.34 0 7 C-0.99 8.485 -0.99 8.485 -2 10 C-2 9.01 -2 8.02 -2 7 C-2.66 6.67 -3.32 6.34 -4 6 C-2.68 4.02 -1.36 2.04 0 0 Z " fill="#343233" transform="translate(354,533)"/>
<path d="M0 0 C1.65 0 3.3 0 5 0 C6.65 2.97 8.3 5.94 10 9 C7 9 7 9 5.17578125 7.28515625 C4.56089844 6.55167969 3.94601562 5.81820313 3.3125 5.0625 C2.68988281 4.33160156 2.06726563 3.60070312 1.42578125 2.84765625 C0 1 0 1 0 0 Z " fill="#2B2A2A" transform="translate(665,323)"/>
<path d="M0 0 C0.33 0.66 0.66 1.32 1 2 C-1.33333333 4.33333333 -3.66666667 6.66666667 -6 9 C-7.32 8.67 -8.64 8.34 -10 8 C-6.7 5.36 -3.4 2.72 0 0 Z " fill="#312F30" transform="translate(652,669)"/>
<path d="M0 0 C0 0.66 0 1.32 0 2 C-0.804375 2.61875 -1.60875 3.2375 -2.4375 3.875 C-5.03064129 6.02540985 -5.65220835 6.75394458 -6 10 C-7.98 10.33 -9.96 10.66 -12 11 C-2.73033708 0 -2.73033708 0 0 0 Z " fill="#ECECEC" transform="translate(348,452)"/>
<path d="M0 0 C-1.1427919 1.16964602 -2.28931715 2.33564556 -3.4375 3.5 C-4.07558594 4.1496875 -4.71367187 4.799375 -5.37109375 5.46875 C-7 7 -7 7 -8 7 C-7.67 4.69 -7.34 2.38 -7 0 C-3.86650268 -1.04449911 -3.01031744 -0.93423645 0 0 Z " fill="#2C2C2C" transform="translate(424,375)"/>
<path d="M0 0 C0.99 0.33 1.98 0.66 3 1 C2.3125 3.875 2.3125 3.875 1 7 C-1.625 8.375 -1.625 8.375 -4 9 C-4 5.00095031 -2.27413033 3.19799578 0 0 Z " fill="#EFEEEF" transform="translate(297,344)"/>
<path d="M0 0 C0 3 0 3 -1.6875 5.25 C-4 7 -4 7 -6.75 6.75 C-7.4925 6.5025 -8.235 6.255 -9 6 C-9 5.34 -9 4.68 -9 4 C-2.25 0 -2.25 0 0 0 Z " fill="#302F30" transform="translate(397,304)"/>
<path d="M0 0 C1.32 0.33 2.64 0.66 4 1 C3.67 2.65 3.34 4.3 3 6 C3.66 6.33 4.32 6.66 5 7 C2.16032769 7 -0.23735711 6.59732819 -3 6 C-2 4 -1 2 0 0 Z " fill="#1C1C1C" transform="translate(350,568)"/>
<path d="M0 0 C1.32 1.65 2.64 3.3 4 5 C3.01 6.485 3.01 6.485 2 8 C2 7.34 2 6.68 2 6 C1.34 6 0.68 6 0 6 C0 7.65 0 9.3 0 11 C-1.32 9.35 -2.64 7.7 -4 6 C-2.68 5.67 -1.36 5.34 0 5 C0 3.35 0 1.7 0 0 Z " fill="#302E2F" transform="translate(643,561)"/>
<path d="M0 0 C1.32 0.33 2.64 0.66 4 1 C2.8572081 2.16964602 1.71068285 3.33564556 0.5625 4.5 C-0.07558594 5.1496875 -0.71367187 5.799375 -1.37109375 6.46875 C-3 8 -3 8 -4 8 C-3.67 5.69 -3.34 3.38 -3 1 C-2.01 1.33 -1.02 1.66 0 2 C0 1.34 0 0.68 0 0 Z " fill="#2E2B2C" transform="translate(332,462)"/>
<path d="M0 0 C1.32 0.33 2.64 0.66 4 1 C2.8572081 2.16964602 1.71068285 3.33564556 0.5625 4.5 C-0.07558594 5.1496875 -0.71367187 5.799375 -1.37109375 6.46875 C-3 8 -3 8 -4 8 C-3.67 5.69 -3.34 3.38 -3 1 C-2.01 1.33 -1.02 1.66 0 2 C0 1.34 0 0.68 0 0 Z " fill="#2F2E2E" transform="translate(364,430)"/>
<path d="M0 0 C0.66 0.66 1.32 1.32 2 2 C0.35 4.31 -1.3 6.62 -3 9 C-3.99 8.01 -4.98 7.02 -6 6 C-5.34 6 -4.68 6 -4 6 C-3.67 4.35 -3.34 2.7 -3 1 C-2.01 1.33 -1.02 1.66 0 2 C0 1.34 0 0.68 0 0 Z " fill="#ECECEC" transform="translate(317,370)"/>
<path d="M0 0 C1.32 0.66 2.64 1.32 4 2 C1.69 4.31 -0.62 6.62 -3 9 C-3.66 8.34 -4.32 7.68 -5 7 C-3 4 -3 4 0 3 C0 2.01 0 1.02 0 0 Z " fill="#2D2C2C" transform="translate(468,325)"/>
<path d="M0 0 C0.66 0 1.32 0 2 0 C2 0.99 2 1.98 2 3 C4.475 3.99 4.475 3.99 7 5 C7 5.66 7 6.32 7 7 C7.66 7 8.32 7 9 7 C8.67 7.99 8.34 8.98 8 10 C6.87105124 9.06725891 5.74699124 8.12859878 4.625 7.1875 C3.99851562 6.66542969 3.37203125 6.14335937 2.7265625 5.60546875 C1 4 1 4 -1 1 C-0.67 0.67 -0.34 0.34 0 0 Z " fill="#2E2D2D" transform="translate(657,313)"/>
<path d="M0 0 C-0.33 0.99 -0.66 1.98 -1 3 C-1.66 3 -2.32 3 -3 3 C-4.7015625 3.556875 -4.7015625 3.556875 -6.4375 4.125 C-8.2009375 4.558125 -8.2009375 4.558125 -10 5 C-10.99 4.34 -11.98 3.68 -13 3 C-11.39743892 2.49487756 -9.79288208 1.99608373 -8.1875 1.5 C-7.29417969 1.2215625 -6.40085937 0.943125 -5.48046875 0.65625 C-3 0 -3 0 0 0 Z " fill="#3D3A3B" transform="translate(568,719)"/>
<path d="M0 0 C0.99 0.33 1.98 0.66 3 1 C4.3125 4.375 4.3125 4.375 5 8 C4.01 9.485 4.01 9.485 3 11 C2.690625 10.195625 2.38125 9.39125 2.0625 8.5625 C1.23664655 6.10919595 1.23664655 6.10919595 0 5 C-0.04063832 3.33382885 -0.042721 1.66611905 0 0 Z " fill="#312E2F" transform="translate(681,412)"/>
<path d="M0 0 C0.33 0.99 0.66 1.98 1 3 C-1.97 5.475 -1.97 5.475 -5 8 C-6 6 -6 6 -5.1875 3.4375 C-3.79322886 0.57557503 -3.17112511 0 0 0 Z " fill="#2B2B2B" transform="translate(389,406)"/>
<path d="M0 0 C0.66 0.66 1.32 1.32 2 2 C1.25 3.9375 1.25 3.9375 0 6 C-1.9375 6.5625 -1.9375 6.5625 -4 7 C-5.73026102 8.47890069 -5.73026102 8.47890069 -7 10 C-7.66 9.67 -8.32 9.34 -9 9 C-6.03 6.03 -3.06 3.06 0 0 Z " fill="#E3E1E2" transform="translate(318,320)"/>
<path d="M0 0 C4.7517398 0.43197635 6.92000054 1.32769295 10 5 C9.34 5.66 8.68 6.32 8 7 C6.66382648 6.02471263 5.3311249 5.04466681 4 4.0625 C3.2575 3.51722656 2.515 2.97195313 1.75 2.41015625 C1.1725 1.94480469 0.595 1.47945312 0 1 C0 0.67 0 0.34 0 0 Z " fill="#302D2E" transform="translate(365,656)"/>
<path d="M0 0 C0.66 0.66 1.32 1.32 2 2 C2.66 1.67 3.32 1.34 4 1 C4.33 1.99 4.66 2.98 5 4 C4.01 4.495 4.01 4.495 3 5 C2.67 5.66 2.34 6.32 2 7 C0.35 6.67 -1.3 6.34 -3 6 C-2.01 4.02 -1.02 2.04 0 0 Z " fill="#2B292A" transform="translate(360,524)"/>
<path d="M0 0 C0.33 0 0.66 0 1 0 C1.33 4.95 1.66 9.9 2 15 C0.68 15.33 -0.64 15.66 -2 16 C-2.33 14.68 -2.66 13.36 -3 12 C-2.01 12 -1.02 12 0 12 C0 8.04 0 4.08 0 0 Z " fill="#3F3C3D" transform="translate(599,480)"/>
<path d="M0 0 C0.66 0.33 1.32 0.66 2 1 C-0.68728192 4.58304256 -3.44463159 7.28669253 -7 10 C-7.66 10.66 -8.32 11.32 -9 12 C-9 9 -9 9 -7.03125 6.73828125 C-5.77828125 5.53751953 -5.77828125 5.53751953 -4.5 4.3125 C-3.6646875 3.50425781 -2.829375 2.69601562 -1.96875 1.86328125 C-1.3190625 1.24839844 -0.669375 0.63351562 0 0 Z " fill="#ECEAEB" transform="translate(310,488)"/>
<path d="M0 0 C0 0.66 0 1.32 0 2 C-0.66 2.66 -1.32 3.32 -2 4 C-1.67 4.66 -1.34 5.32 -1 6 C-3.97 5.67 -6.94 5.34 -10 5 C-3.63636364 0 -3.63636364 0 0 0 Z " fill="#312F30" transform="translate(603,704)"/>
<path d="M0 0 C1.32 0.33 2.64 0.66 4 1 C3.67 2.98 3.34 4.96 3 7 C2.34 7 1.68 7 1 7 C1 7.66 1 8.32 1 9 C0.34 9 -0.32 9 -1 9 C-2.0326802 6.21176345 -2.04509293 5.1322726 -1.0625 2.25 C-0.711875 1.5075 -0.36125 0.765 0 0 Z " fill="#1C1A1B" transform="translate(290,630)"/>
<path d="M0 0 C0.99 0.66 1.98 1.32 3 2 C2.67 3.65 2.34 5.3 2 7 C1.01 7 0.02 7 -1 7 C-1 6.34 -1 5.68 -1 5 C-1.66 5 -2.32 5 -3 5 C-1.125 1.125 -1.125 1.125 0 0 Z " fill="#1F1D1E" transform="translate(360,544)"/>
<path d="M0 0 C2.4375 0.75 2.4375 0.75 5 2 C5.8125 4.125 5.8125 4.125 6 6 C5.01 6 4.02 6 3 6 C0.8125 3.5 0.8125 3.5 -1 1 C-0.67 0.67 -0.34 0.34 0 0 Z " fill="#302C2D" transform="translate(513,329)"/>
<path d="M0 0 C0.66 0.33 1.32 0.66 2 1 C0.35 2.98 -1.3 4.96 -3 7 C-3.99 6.67 -4.98 6.34 -6 6 C-4.02 4.02 -2.04 2.04 0 0 Z M-8 7 C-7.34 7.33 -6.68 7.66 -6 8 C-6.99 8.99 -7.98 9.98 -9 11 C-9.66 10.67 -10.32 10.34 -11 10 C-10.01 9.01 -9.02 8.02 -8 7 Z " fill="#E3E1E2" transform="translate(336,303)"/>
<path d="M0 0 C0.66 0.33 1.32 0.66 2 1 C-1.42388092 4.82669043 -4.00724943 6.72278474 -9 8 C-9.33 7.34 -9.66 6.68 -10 6 C-8.3811004 4.96951963 -6.75467511 3.95085322 -5.125 2.9375 C-4.22007812 2.36902344 -3.31515625 1.80054688 -2.3828125 1.21484375 C-1.20332031 0.61349609 -1.20332031 0.61349609 0 0 Z " fill="#E8E7E7" transform="translate(371,279)"/>
<path d="M0 0 C1.1875 1.5 1.1875 1.5 2 4 C1.27101296 6.78824238 0.1843275 9.37665092 -1 12 C-2.1875 10.5 -2.1875 10.5 -3 8 C-2.27101296 5.21175762 -1.1843275 2.62334908 0 0 Z " fill="#363435" transform="translate(356,547)"/>
<path d="M0 0 C1.485 0.99 1.485 0.99 3 2 C2.67 3.32 2.34 4.64 2 6 C1.34 5.34 0.68 4.68 0 4 C0 2.68 0 1.36 0 0 Z M-4 5 C-1.03 5.495 -1.03 5.495 2 6 C0.515 7.485 0.515 7.485 -1 9 C-1.99 7.68 -2.98 6.36 -4 5 Z " fill="#333132" transform="translate(648,569)"/>
<path d="M0 0 C0.33 0 0.66 0 1 0 C1 5.61 1 11.22 1 17 C0.67 17 0.34 17 0 17 C-0.16947579 15.58366664 -0.33545507 14.16691467 -0.5 12.75 C-0.5928125 11.96109375 -0.685625 11.1721875 -0.78125 10.359375 C-1.12188751 6.68535618 -1.0087628 3.53066982 0 0 Z " fill="#272727" transform="translate(484,368)"/>
<path d="M0 0 C1.2065625 0.0309375 1.2065625 0.0309375 2.4375 0.0625 C2.1075 1.0525 1.7775 2.0425 1.4375 3.0625 C2.0975 3.3925 2.7575 3.7225 3.4375 4.0625 C2.4475 5.5475 2.4475 5.5475 1.4375 7.0625 C-0.2125 5.0825 -1.8625 3.1025 -3.5625 1.0625 C-2.5625 0.0625 -2.5625 0.0625 0 0 Z " fill="#2F2F2F" transform="translate(539.5625,352.9375)"/>
<path d="M0 0 C2.31 0.66 4.62 1.32 7 2 C5.68 2.33 4.36 2.66 3 3 C3 3.99 3 4.98 3 6 C2.01 5.67 1.02 5.34 0 5 C-0.33 4.01 -0.66 3.02 -1 2 C-0.67 1.34 -0.34 0.68 0 0 Z " fill="#2A2627" transform="translate(396,713)"/>
<path d="M0 0 C5.75 0.75 5.75 0.75 8 3 C5.36 3.33 2.72 3.66 0 4 C0 2.68 0 1.36 0 0 Z " fill="#2E2A2B" transform="translate(377,705)"/>
<path d="M0 0 C1.65 0.33 3.3 0.66 5 1 C5 2.32 5 3.64 5 5 C3.35 4.67 1.7 4.34 0 4 C0 2.68 0 1.36 0 0 Z " fill="#302C2D" transform="translate(449,690)"/>
<path d="M0 0 C0.66 0.66 1.32 1.32 2 2 C0.35 4.64 -1.3 7.28 -3 10 C-4 7 -4 7 -2.625 3.875 C-1 1 -1 1 0 0 Z " fill="#EAE8E9" transform="translate(360,520)"/>
<path d="M0 0 C1.875 0.1875 1.875 0.1875 4 1 C5.25 3.5625 5.25 3.5625 6 6 C4.68 6.33 3.36 6.66 2 7 C2 6.34 2 5.68 2 5 C1.34 4.67 0.68 4.34 0 4 C0 2.68 0 1.36 0 0 Z " fill="#1B1B1B" transform="translate(506,516)"/>
<path d="M0 0 C2.375 -0.125 2.375 -0.125 5 0 C5.66 0.66 6.32 1.32 7 2 C6.625 4.125 6.625 4.125 6 6 C3.97945196 4.35830472 1.97956942 2.69088222 0 1 C0 0.67 0 0.34 0 0 Z " fill="#2F2F2F" transform="translate(648,466)"/>
<path d="M0 0 C5.75 1.625 5.75 1.625 8 5 C6.68 5 5.36 5 4 5 C4 4.34 4 3.68 4 3 C3.01 3.33 2.02 3.66 1 4 C0.67 2.68 0.34 1.36 0 0 Z " fill="#F0EFEF" transform="translate(555,377)"/>
<path d="M0 0 C0.33 1.32 0.66 2.64 1 4 C-0.65 5.32 -2.3 6.64 -4 8 C-4.66 7.34 -5.32 6.68 -6 6 C-4.02 4.02 -2.04 2.04 0 0 Z " fill="#363233" transform="translate(342,343)"/>
<path d="M0 0 C2.97 1.98 2.97 1.98 6 4 C5.34 5.32 4.68 6.64 4 8 C3.34 7.01 2.68 6.02 2 5 C1.01 4.67 0.02 4.34 -1 4 C-0.67 2.68 -0.34 1.36 0 0 Z " fill="#292728" transform="translate(624,331)"/>
<path d="M0 0 C1.32 1.65 2.64 3.3 4 5 C3.01 5 2.02 5 1 5 C-1.00309329 5.31421071 -3.00371336 5.6451046 -5 6 C-3.35 4.02 -1.7 2.04 0 0 Z " fill="#F0EEEF" transform="translate(324,314)"/>
<path d="M0 0 C0 1.32 0 2.64 0 4 C-2.91517292 2.92598892 -4.77810176 2.22189824 -7 0 C-4.3333581 -1.33332095 -2.83319697 -0.67102033 0 0 Z " fill="#2E2D2D" transform="translate(610,276)"/>
<path d="M0 0 C0.66 1.32 1.32 2.64 2 4 C2.99 4 3.98 4 5 4 C5.33 5.32 5.66 6.64 6 8 C4.35 7.67 2.7 7.34 1 7 C0.67 4.69 0.34 2.38 0 0 Z " fill="#343333" transform="translate(265,584)"/>
<path d="M0 0 C0.33 0.66 0.66 1.32 1 2 C3.31 1.34 5.62 0.68 8 0 C7.34 1.32 6.68 2.64 6 4 C3.36 4 0.72 4 -2 4 C-1.34 2.68 -0.68 1.36 0 0 Z " fill="#313031" transform="translate(333,566)"/>
<path d="M0 0 C2.35953094 2.35953094 2.49141413 3.77895617 3 7 C1.35 7.33 -0.3 7.66 -2 8 C-1.125 2.25 -1.125 2.25 0 0 Z " fill="#E8E6E7" transform="translate(361,552)"/>
<path d="M0 0 C0.33 0 0.66 0 1 0 C1.33 3.96 1.66 7.92 2 12 C0.68 10.68 -0.64 9.36 -2 8 C-1.9355877 5.05850486 -0.94310882 2.82932647 0 0 Z " fill="#373435" transform="translate(695,456)"/>
<path d="M0 0 C3.00617269 3.00617269 2.59585316 5.82381598 3 10 C0.525 9.01 0.525 9.01 -2 8 C-1.34 5.36 -0.68 2.72 0 0 Z " fill="#312E2F" transform="translate(692,444)"/>
<path d="M0 0 C1.89213369 2.38573379 3.02391783 4.07175348 4 7 C3.01 7 2.02 7 1 7 C1 6.34 1 5.68 1 5 C-0.65 5 -2.3 5 -4 5 C-2.68 3.35 -1.36 1.7 0 0 Z " fill="#302C2D" transform="translate(669,384)"/>
<path d="M0 0 C0.33 0.99 0.66 1.98 1 3 C1.66 3 2.32 3 3 3 C3 2.34 3 1.68 3 1 C4.32 1.33 5.64 1.66 7 2 C5.35 3.32 3.7 4.64 2 6 C1.01 5.34 0.02 4.68 -1 4 C-0.67 2.68 -0.34 1.36 0 0 Z " fill="#2E2B2C" transform="translate(313,317)"/>
<path d="M0 0 C2.31 0.33 4.62 0.66 7 1 C4.61426621 2.89213369 2.92824652 4.02391783 0 5 C-0.66 4.34 -1.32 3.68 -2 3 C-1.34 2.01 -0.68 1.02 0 0 Z " fill="#282828" transform="translate(370,275)"/>
<path d="M0 0 C0.33 0.66 0.66 1.32 1 2 C0.22265625 3.7265625 0.22265625 3.7265625 -0.9375 5.625 C-1.618125 6.73875 -2.29875 7.8525 -3 9 C-3.99 9 -4.98 9 -6 9 C-4.47291037 5.56404834 -2.40072955 2.88087546 0 0 Z " fill="#323031" transform="translate(677,642)"/>
<path d="M0 0 C3.82946843 1.45255699 5.12050295 3.42895561 7 7 C4 7 4 7 1.8125 5.1875 C0 3 0 3 0 0 Z " fill="#333132" transform="translate(300,641)"/>
<path d="M0 0 C0.598125 0.165 1.19625 0.33 1.8125 0.5 C4.11344336 1.1114124 4.11344336 1.1114124 7 1 C5.515 3.475 5.515 3.475 4 6 C1.2160817 4.60804085 1.02101003 2.84424221 0 0 Z " fill="#2C292A" transform="translate(329,573)"/>
<path d="M0 0 C0.99 0.33 1.98 0.66 3 1 C2.67 3.97 2.34 6.94 2 10 C1.67 10 1.34 10 1 10 C0.67 6.7 0.34 3.4 0 0 Z " fill="#2F2D2E" transform="translate(287,533)"/>
<path d="M0 0 C1.65 0.33 3.3 0.66 5 1 C2.3534665 3.6465335 -0.56221264 4.59941997 -4 6 C-3.67 5.01 -3.34 4.02 -3 3 C-2.34 3 -1.68 3 -1 3 C-0.67 2.01 -0.34 1.02 0 0 Z " fill="#2D2B2C" transform="translate(377,521)"/>
<path d="M0 0 C2.0625 0.4375 2.0625 0.4375 4 1 C2.515 3.475 2.515 3.475 1 6 C0.01 5.67 -0.98 5.34 -2 5 C-1.125 1.125 -1.125 1.125 0 0 Z " fill="#2D2B2C" transform="translate(294,499)"/>
<path d="M0 0 C1.32 0.66 2.64 1.32 4 2 C2.35 3.32 0.7 4.64 -1 6 C-1.66 4.68 -2.32 3.36 -3 2 C-2.01 2 -1.02 2 0 2 C0 1.34 0 0.68 0 0 Z " fill="#2F2C2D" transform="translate(300,493)"/>
<path d="M0 0 C0.99 0 1.98 0 3 0 C2.67 0.99 2.34 1.98 2 3 C2.33 3.66 2.66 4.32 3 5 C2.01 6.485 2.01 6.485 1 8 C0.01 6.35 -0.98 4.7 -2 3 C-1.34 2.01 -0.68 1.02 0 0 Z " fill="#2C2A2B" transform="translate(683,339)"/>
<path d="M0 0 C1.65 1.65 3.3 3.3 5 5 C4.01 5.66 3.02 6.32 2 7 C2 6.34 2 5.68 2 5 C1.34 5 0.68 5 0 5 C-0.5625 3.0625 -0.5625 3.0625 -1 1 C-0.67 0.67 -0.34 0.34 0 0 Z " fill="#F1EFEF" transform="translate(513,332)"/>
<path d="M0 0 C1.98 0 3.96 0 6 0 C6 0.99 6 1.98 6 3 C4.02 3.66 2.04 4.32 0 5 C-0.33 4.34 -0.66 3.68 -1 3 C-0.34 3 0.32 3 1 3 C0.67 2.01 0.34 1.02 0 0 Z " fill="#292929" transform="translate(387,266)"/>
<path d="M0 0 C2.75 0.25 2.75 0.25 5 1 C4.67 2.32 4.34 3.64 4 5 C1.36 4.67 -1.28 4.34 -4 4 C-2.3125 1.9375 -2.3125 1.9375 0 0 Z " fill="#3D3D3D" transform="translate(538,249)"/>
<path d="M0 0 C2.4375 0.8125 2.4375 0.8125 5 2 C5.33 2.99 5.66 3.98 6 5 C3 5 3 5 0.8125 3 C0.214375 2.34 -0.38375 1.68 -1 1 C-0.67 0.67 -0.34 0.34 0 0 Z " fill="#E7E5E6" transform="translate(345,681)"/>
<path d="M0 0 C2.31 1.65 4.62 3.3 7 5 C5.02 5.99 5.02 5.99 3 7 C0 3.375 0 3.375 0 0 Z " fill="#312D2E" transform="translate(331,672)"/>
<path d="M0 0 C3 1 3 1 4.1875 3.0625 C4.455625 3.701875 4.72375 4.34125 5 5 C4.34 5.66 3.68 6.32 3 7 C1.68 5.35 0.36 3.7 -1 2 C-0.67 1.34 -0.34 0.68 0 0 Z " fill="#EAEAEA" transform="translate(311,649)"/>
<path d="M0 0 C1.5625 1.125 1.5625 1.125 3 3 C2.6875 6.1875 2.6875 6.1875 2 9 C0.10786631 6.61426621 -1.02391783 4.92824652 -2 2 C-1.34 2 -0.68 2 0 2 C0 1.34 0 0.68 0 0 Z " fill="#2E2C2D" transform="translate(308,585)"/>
<path d="M0 0 C2.52588702 2.36292656 3.88820837 3.66462511 5 7 C3.02 6.34 1.04 5.68 -1 5 C-0.67 3.35 -0.34 1.7 0 0 Z " fill="#353132" transform="translate(610,510)"/>
<path d="M0 0 C2.25245881 2.68841859 3.88213958 4.64641875 5 8 C4.01 8.33 3.02 8.66 2 9 C1.34 8.34 0.68 7.68 0 7 C0.66 7 1.32 7 2 7 C2 6.01 2 5.02 2 4 C1.01 3.67 0.02 3.34 -1 3 C-0.67 2.01 -0.34 1.02 0 0 Z " fill="#312F30" transform="translate(604,500)"/>
<path d="M0 0 C2.88575819 0.39803561 3.82189513 0.79009069 5.75 3.0625 C6.1625 3.701875 6.575 4.34125 7 5 C3.47967572 5 2.5614657 4.29648649 0 2 C0 1.34 0 0.68 0 0 Z " fill="#EDEDED" transform="translate(677,498)"/>
<path d="M0 0 C0.66 0.33 1.32 0.66 2 1 C0.515 3.475 0.515 3.475 -1 6 C-2.32 5.34 -3.64 4.68 -5 4 C-3.35 2.68 -1.7 1.36 0 0 Z " fill="#3C3C3C" transform="translate(477,454)"/>
<path d="M0 0 C-0.66 1.65 -1.32 3.3 -2 5 C-3.32 5 -4.64 5 -6 5 C-4.87312259 1.61936778 -3.78825335 0 0 0 Z " fill="#3F3F3F" transform="translate(608,454)"/>
<path d="M0 0 C3.875 1.75 3.875 1.75 5 4 C4.67 4.66 4.34 5.32 4 6 C4.99 6.33 5.98 6.66 7 7 C5.68 7.33 4.36 7.66 3 8 C2.01 5.36 1.02 2.72 0 0 Z " fill="#343434" transform="translate(501,454)"/>
<path d="M0 0 C1.32 0.33 2.64 0.66 4 1 C4.33 2.32 4.66 3.64 5 5 C3.68 5.99 2.36 6.98 1 8 C1.33 6.02 1.66 4.04 2 2 C1.34 2 0.68 2 0 2 C0 1.34 0 0.68 0 0 Z " fill="#292929" transform="translate(389,400)"/>
<path d="M0 0 C0.66 0 1.32 0 2 0 C0.52307692 6.64615385 0.52307692 6.64615385 -2.125 8.4375 C-2.74375 8.623125 -3.3625 8.80875 -4 9 C-2.80100302 5.9168649 -1.52299523 2.93720508 0 0 Z " fill="#E9E6E7" transform="translate(285,361)"/>
<path d="M0 0 C2.91517292 1.07401108 4.77810176 1.77810176 7 4 C5.35 4.33 3.7 4.66 2 5 C2 4.34 2 3.68 2 3 C1.34 3 0.68 3 0 3 C0 2.01 0 1.02 0 0 Z " fill="#292627" transform="translate(361,695)"/>
<path d="M0 0 C1.32 0.66 2.64 1.32 4 2 C4 2.66 4 3.32 4 4 C4.66 4.33 5.32 4.66 6 5 C5.01 5.33 4.02 5.66 3 6 C1.68 4.35 0.36 2.7 -1 1 C-0.67 0.67 -0.34 0.34 0 0 Z " fill="#EEEDEE" transform="translate(317,656)"/>
<path d="M0 0 C1.32 0 2.64 0 4 0 C5 3 5 3 4.0625 5.1875 C3.5365625 6.0846875 3.5365625 6.0846875 3 7 C0 2.25 0 2.25 0 0 Z " fill="#E9E7E8" transform="translate(282,612)"/>
<path d="M0 0 C1.65 1.65 3.3 3.3 5 5 C3.68 5 2.36 5 1 5 C0.34 4.34 -0.32 3.68 -1 3 C-0.67 2.01 -0.34 1.02 0 0 Z " fill="#EEEDED" transform="translate(654,473)"/>
<path d="M0 0 C1.32 0.66 2.64 1.32 4 2 C2.35 3.32 0.7 4.64 -1 6 C-1.66 4.68 -2.32 3.36 -3 2 C-2.01 2.33 -1.02 2.66 0 3 C0 2.01 0 1.02 0 0 Z " fill="#302E2F" transform="translate(412,381)"/>
<path d="M0 0 C1.65 1.65 3.3 3.3 5 5 C4.01 5.33 3.02 5.66 2 6 C0 5 0 5 -0.6875 3 C-0.790625 2.34 -0.89375 1.68 -1 1 C-0.67 0.67 -0.34 0.34 0 0 Z " fill="#EEEDEE" transform="translate(547,366)"/>
<path d="M0 0 C2.64 0.66 5.28 1.32 8 2 C7.67 2.66 7.34 3.32 7 4 C4.69 3.67 2.38 3.34 0 3 C0 2.01 0 1.02 0 0 Z " fill="#F2F1F1" transform="translate(554,257)"/>
<path d="M0 0 C5.75 0.75 5.75 0.75 8 3 C7.01 3.66 6.02 4.32 5 5 C3.35 3.35 1.7 1.7 0 0 Z " fill="#393939" transform="translate(357,650)"/>
<path d="M0 0 C0.66 0.99 1.32 1.98 2 3 C1.67 3.66 1.34 4.32 1 5 C0.38125 4.814375 -0.2375 4.62875 -0.875 4.4375 C-3.04160178 3.76313824 -3.04160178 3.76313824 -5 5 C-5 4.01 -5 3.02 -5 2 C-3.35 1.34 -1.7 0.68 0 0 Z " fill="#323131" transform="translate(627,557)"/>
<path d="M0 0 C1.32 0.99 2.64 1.98 4 3 C3.67 4.32 3.34 5.64 3 7 C2.01 6.67 1.02 6.34 0 6 C0 4.02 0 2.04 0 0 Z " fill="#1F1F1F" transform="translate(345,549)"/>
<path d="M0 0 C1.98 0 3.96 0 6 0 C6 1.65 6 3.3 6 5 C5.67 4.34 5.34 3.68 5 3 C4.01 3.33 3.02 3.66 2 4 C1.34 2.68 0.68 1.36 0 0 Z " fill="#323232" transform="translate(628,549)"/>
<path d="M0 0 C2.31 0.66 4.62 1.32 7 2 C6.01 3.32 5.02 4.64 4 6 C2.62437146 4.71034824 1.29233607 3.37310707 0 2 C0 1.34 0 0.68 0 0 Z " fill="#323232" transform="translate(345,547)"/>
<path d="M0 0 C5.75 1.75 5.75 1.75 8 4 C5 5 5 5 2 4 C2 3.34 2 2.68 2 2 C1.34 2 0.68 2 0 2 C0 1.34 0 0.68 0 0 Z " fill="#E9E8E9" transform="translate(469,523)"/>
<path d="M0 0 C0.66 0 1.32 0 2 0 C2.33 2.64 2.66 5.28 3 8 C2.67 7.34 2.34 6.68 2 6 C1.34 6 0.68 6 0 6 C0 4.02 0 2.04 0 0 Z " fill="#312F30" transform="translate(473,516)"/>
<path d="M0 0 C3.875 1.75 3.875 1.75 5 4 C4.34 4 3.68 4 3 4 C2.67 4.66 2.34 5.32 2 6 C2 5.34 2 4.68 2 4 C1.34 4 0.68 4 0 4 C-0.33 3.01 -0.66 2.02 -1 1 C-0.67 0.67 -0.34 0.34 0 0 Z " fill="#EBEBEB" transform="translate(505,325)"/>
</svg>
